<svg width="45" height="45" viewBox="0 0 45 45" fill="none" xmlns="http://www.w3.org/2000/svg">
<g clipPath="url(#clip0_120_95)">
<path d="M23.16 3.95063C27.8119 7.24875 27.7987 7.20563 33.4594 7.17188C33.9169 7.17188 34.32 7.42688 34.4419 7.7925C36.1612 13.0219 36.2081 13.1138 40.8881 16.3312C41.2181 16.56 41.3138 16.9069 41.2144 17.1806C39.3938 22.4325 39.3787 22.4944 41.2144 27.8231C41.3138 28.095 41.22 28.4419 40.8862 28.6725C36.2569 31.8581 36.1894 31.9162 34.4419 37.2094C34.32 37.575 33.9169 37.83 33.4556 37.83C27.84 37.7944 27.8306 37.7381 23.1619 41.0494C22.7775 41.3213 22.2225 41.3194 21.8419 41.0494C17.2013 37.7663 17.2238 37.7887 11.5425 37.83C11.085 37.83 10.6819 37.575 10.5619 37.2131C9.01312 32.5275 8.86125 31.9256 5.0775 29.3344L4.11375 28.6706C3.78375 28.4419 3.68812 28.095 3.7875 27.8213C5.41125 23.1263 5.66062 22.5619 4.14937 18.2325C3.87563 17.4375 3.44813 16.7906 4.11375 16.3275C8.7225 13.1569 8.8125 13.0988 10.5581 7.79063C10.68 7.425 11.0831 7.17 11.5444 7.17C17.1863 7.20937 17.1619 7.26 21.84 3.95063C22.2262 3.67875 22.7831 3.68625 23.16 3.95063ZM22.5 0C21.5119 0 20.5219 0.294375 19.6838 0.883125C16.3894 3.20062 16.365 3.43687 13.7738 3.43687L11.5556 3.42188H11.5406C9.47063 3.42188 7.635 4.70625 7.00125 6.60187C5.47875 11.1637 6.00188 10.455 1.97625 13.2469C0.710625 14.1244 0 15.5194 0 16.9631C0 17.4394 0.076875 17.9231 0.238125 18.3938C1.79437 22.9463 1.78875 22.0744 0.238125 26.6062C0.076875 27.0769 0 27.5588 0 28.0369C0 29.4806 0.710625 30.8756 1.97812 31.7531C6.00375 34.545 5.4825 33.8419 7.00312 38.3981C7.63687 40.2938 9.47062 41.5781 11.5425 41.5781H11.5575C16.53 41.5631 15.6619 41.2875 19.6856 44.1169C20.5219 44.7038 21.5119 45 22.5 45C23.4881 45 24.4781 44.7056 25.3162 44.1169C28.6162 41.7956 28.62 41.565 31.2806 41.565L33.4444 41.5781H33.4594C35.5294 41.5781 37.365 40.2938 37.9988 38.3981C39.5213 33.8456 38.9887 34.5487 43.0238 31.7531C44.2894 30.8737 45 29.4806 45 28.0369C45 27.5606 44.9231 27.0769 44.7619 26.6062C43.2037 22.0537 43.2113 22.9256 44.7619 18.3938C44.9231 17.9231 45 17.4394 45 16.9631C45 15.5194 44.2894 14.1244 43.0219 13.2469C38.9869 10.4494 39.5194 11.1525 37.9969 6.60187C37.3631 4.70625 35.5294 3.42188 33.4575 3.42188H33.4425L31.275 3.435C28.62 3.435 28.6125 3.2025 25.3144 0.883125C24.4781 0.294375 23.4881 0 22.5 0ZM29.4338 28.7887C28.6744 28.7306 28.7456 28.0275 29.4637 27.8944C30.6525 27.675 31.1756 27.0375 31.1756 26.4487C31.1756 25.9519 30.8044 25.4906 30.1462 25.3406C29.3625 25.1625 29.5238 24.63 30.1763 24.5794C31.2375 24.495 31.7587 23.8631 31.7587 23.2575C31.7587 22.7288 31.3613 22.2188 30.5775 22.1137C29.7731 22.0069 30.0356 21.4256 30.6075 21.2494C31.0969 21.0994 31.8769 20.7806 31.8769 19.8337C31.8769 19.2038 31.4081 18.3694 29.7469 18.4369C28.5956 18.4838 26.31 18.2512 25.08 17.6081C25.9275 14.1788 25.7231 9.375 23.4956 9.375C22.0013 9.375 21.7181 11.0681 21.2681 12.6263C19.6575 18.2213 16.4363 19.2469 13.125 19.755V29.0625C19.395 29.0625 21.0938 31.875 25.785 31.875C28.785 31.875 30.3337 30.2494 30.3337 29.3756C30.3337 29.0625 30.0788 28.8375 29.4338 28.7887Z" fill="#B69302"/>
</g>
<defs>
<clipPath id="clip0_120_95">
<rect width="45" height="45" fill="white"/>
</clipPath>
</defs>
</svg>
