<svg width="687" height="580" viewBox="0 0 687 580" fill="none" xmlns="http://www.w3.org/2000/svg">
<path d="M46.7638 75.7092C47.5732 135.096 48.3827 343.979 49.1922 403.229C49.2745 409.54 50.2624 417.087 57.04 419.818C60.0722 421.039 63.6119 420.929 67.0008 420.806C83.8901 420.175 100.779 419.543 117.641 418.912C171.78 416.895 588.141 419.489 642.088 417.471C653.407 417.046 666.647 415.715 672.547 407.551C675.867 402.954 675.894 397.301 675.812 391.963C674.989 337.832 676.8 125.628 675.963 71.387C675.867 65.4455 675.606 59.065 671.312 54.3997C664.863 47.388 652.502 47.2233 641.855 47.5526C596.785 48.9385 186.667 51.7652 141.487 50.736C119.096 50.2283 96.6497 50.0088 74.2586 49.0071C54.3784 48.1152 46.5442 60.492 46.75 75.723L46.7638 75.7092Z" fill="#E6E7E8"/>
<path d="M676.169 93.1219C676.141 85.7534 676.073 78.4947 675.963 71.387C675.867 65.4455 675.606 59.065 671.312 54.3997C664.863 47.388 652.502 47.2233 641.855 47.5526C596.785 48.9385 186.667 51.7652 141.487 50.736C119.096 50.2283 96.6497 50.0088 74.2586 49.0071C54.3784 48.1152 46.5442 60.492 46.75 75.723C46.8324 81.5272 46.9147 87.3314 46.9833 93.1356H676.169V93.1219Z" fill="#0E6175"/>
<path d="M73.5729 69.3972C72.3655 73.1569 73.5317 77.5753 76.4541 80.2235C79.3764 82.8718 83.9315 83.5716 87.4987 81.8975C91.0659 80.2235 93.4257 76.2305 93.1376 72.2925C92.3144 61.2604 77.0989 58.3377 73.5729 69.3972Z" fill="white"/>
<path d="M99.5853 68.2034C98.1996 73.2117 101.369 79.0571 106.349 80.5802C111.316 82.117 117.243 79.0434 118.835 74.0899C122.813 61.6582 103.194 55.1542 99.5991 68.2034H99.5853Z" fill="white"/>
<path d="M125.777 65.5965C125.105 68.039 124.817 70.6735 125.544 73.1022C126.875 77.6029 131.951 80.6216 136.534 79.6611C141.116 78.6869 144.546 73.8706 143.943 69.219C142.804 60.3138 128.741 54.8114 125.777 65.5965Z" fill="white"/>
<path d="M130.073 246.748C124.667 252.964 119.165 261.457 123.254 269.402C126.793 276.29 135.533 278.5 143.024 279.597C165.621 282.918 188.341 284.208 210.801 283.453C208.551 299.617 207.138 315.959 206.562 332.425C206.397 337.351 206.315 342.387 207.81 347.244C209.319 352.088 212.694 356.795 217.455 358.702C223.41 361.09 230.05 358.428 233.809 353.831C237.569 349.234 239.009 343.101 239.983 337.063C242.851 319.225 242.343 300.742 241.849 282.383C247.557 279.597 254.568 280.311 260.92 279.09C267.273 277.868 273.803 273.093 272.651 266.534C271.677 261.046 265.736 257.368 260.234 256.271C254.732 255.173 249.121 255.763 243.66 254.446C244.827 250.151 245.993 245.76 245.609 241.191C245.211 236.621 242.933 231.778 238.817 229.404C233.233 226.179 226.195 228.677 222.532 233.342C218.868 237.994 217.757 244.237 216.742 250.233C202.157 251.153 187.573 252.058 172.989 252.978C169.792 253.183 165.292 252.333 164.976 249.122C164.825 247.599 165.841 246.323 166.801 245.239C193.596 214.914 227.828 191.231 250.575 157.668C252.743 154.471 254.828 151.095 255.528 147.212C256.228 143.315 255.254 138.759 252.153 135.905C247.145 131.309 239.503 133.065 234.015 136.07C225.742 140.612 218.704 147.39 213.874 155.459C210.499 161.112 171.534 202.935 156.017 218.77C147.113 227.853 138.428 237.157 130.086 246.762L130.073 246.748Z" fill="#0E6175"/>
<path d="M458.406 246.323C453.001 252.539 447.499 261.032 451.588 268.977C455.127 275.865 463.867 278.074 471.358 279.172C493.955 282.493 516.675 283.782 539.135 283.028C536.885 299.192 535.472 315.534 534.895 332C534.731 336.926 534.649 341.962 536.144 346.819C537.653 351.663 541.028 356.369 545.789 358.277C551.744 360.664 558.384 358.002 562.143 353.406C565.903 348.809 567.343 342.675 568.317 336.638C571.185 318.8 570.677 300.317 570.183 281.957C575.891 279.172 582.902 279.886 589.254 278.664C595.606 277.443 602.137 272.668 600.985 266.109C600.011 260.621 594.07 256.943 588.568 255.845C583.066 254.748 577.455 255.338 571.994 254.02C573.161 249.726 574.327 245.335 573.943 240.765C573.545 236.196 571.267 231.352 567.151 228.979C561.567 225.754 554.529 228.251 550.866 232.917C547.202 237.568 546.091 243.812 545.076 249.808C530.491 250.727 515.907 251.633 501.323 252.552C498.126 252.758 493.626 251.907 493.31 248.696C493.159 247.173 494.175 245.897 495.135 244.813C521.93 214.489 556.161 190.805 578.909 157.242C581.077 154.045 583.162 150.67 583.862 146.787C584.562 142.89 583.588 138.334 580.487 135.48C575.479 130.883 567.837 132.64 562.349 135.645C554.076 140.187 547.038 146.965 542.208 155.033C538.833 160.687 499.868 202.51 484.351 218.344C475.447 227.428 466.762 236.731 458.42 246.336L458.406 246.323Z" fill="#0E6175"/>
<path d="M416.876 197.748C411.319 179.279 404.733 167.959 388.448 157.119C376.662 149.27 364.095 144.44 350.512 146.745C332.594 149.778 318.435 162.909 310.395 178.73C302.355 194.551 299.666 212.897 298.266 231.091C296.798 250.274 296.634 269.69 297.841 289.134C298.595 301.332 299.94 313.681 304.097 325.482C308.254 337.282 315.512 348.616 325.967 355.889C340.565 366.057 359.896 366.88 375.03 360.335C390.163 353.789 401.331 340.713 408.301 325.852C415.284 311.006 418.412 294.375 420.539 277.731C423.887 251.591 424.861 224.231 416.889 197.748H416.876ZM387.007 242.769C387.679 260.113 384.812 277.059 381.643 293.771C380.38 300.413 379.022 307.164 375.62 312.831C372.217 318.498 366.359 322.998 359.457 323.012C351.417 323.026 343.789 316.906 339.769 309.606C335.736 302.306 334.638 294.005 333.993 285.964C332.772 270.568 332.937 255.214 333.856 239.983C334.446 230.172 335.461 220.224 338.617 211.072C342.362 200.191 356.796 178.497 371.106 191.903C383.33 203.347 386.445 228.032 387.021 242.755L387.007 242.769Z" fill="#0E6175"/>
<path d="M471.248 242.193C465.485 285.512 432.256 326.292 389.079 342.195C346.739 357.783 297.443 347.917 269.44 318.1C250.726 298.177 241.616 270.679 241.671 242.989C241.74 213.35 252.922 181.667 276.643 160.563C295.261 144.002 320.054 135.124 344.64 131.872C365.439 129.114 387.391 129.374 408.054 131.885C423.557 133.779 435.247 145.264 444.878 156.227C465.088 179.266 475.46 210.606 471.262 242.193H471.248Z" fill="#E6E7E8"/>
<path d="M483.924 228.897C478.889 179.321 446.921 134.191 399.107 118.054C352.445 102.316 292.461 118.356 261.18 158.3C241.011 184.069 233.63 217 235.935 247.558C237.375 266.81 242.397 285.388 249.271 303.185C252.522 311.61 258.984 320.598 260.905 329.393C263.114 339.534 259.327 342.401 252.467 351.869C225.535 389.041 198.918 425.842 172.576 462.218C166.772 470.245 160.777 478.739 159.652 488.467C158.527 498.196 164.316 509.351 174.016 510.339C184.649 511.423 192.662 500.844 198.273 491.527C226.784 444.256 255.609 396.478 284.751 348.151C313.288 363.78 348.494 370.352 382.725 363.546C417.519 356.617 450.667 335.253 468.53 305.024C482.332 281.67 486.503 254.515 483.896 228.924L483.924 228.897ZM376.345 331.932C334.129 343.348 287.934 326.91 266.311 293.745C244.99 261.005 248.571 213.707 274.666 180.46C299.349 149.024 354.887 123.159 392.617 140.379C431.157 157.97 462.178 194.017 458.267 238.337C454.536 280.545 419.399 320.296 376.332 331.932H376.345Z" fill="#32A8C4"/>
<path d="M170.395 498.923C170.162 498.923 169.942 498.8 169.805 498.594C169.613 498.264 169.709 497.853 170.038 497.647C173.894 495.301 176.624 491.28 179.025 487.726L280.526 338.093C280.731 337.777 281.157 337.695 281.459 337.901C320.711 363.121 378.994 360.39 420.031 331.424C462.384 301.539 483.088 246.886 469.272 201.481C469.162 201.125 469.368 200.74 469.724 200.631C470.095 200.521 470.465 200.727 470.575 201.083C484.556 247.037 463.633 302.321 420.813 332.536C379.529 361.68 320.972 364.521 281.266 339.41L180.136 488.481C177.653 492.145 174.84 496.289 170.724 498.8C170.615 498.868 170.491 498.896 170.368 498.896L170.395 498.923Z" fill="white"/>
<path d="M267.011 392.513C267.642 404.107 261.537 415.194 255.637 425.499C241.231 450.692 226.907 475.747 212.666 500.666C206.314 511.78 199.495 523.361 188.56 529.879C176.939 536.794 161.587 536.52 150.514 529.248C139.525 522.016 133.255 508.212 134.929 494.999C136.644 481.483 145.616 470.025 154.26 459.336C175.773 432.73 196.833 405.191 218.964 378.297C234.838 359.005 265.529 365.138 267.011 392.513Z" fill="#0E6175"/>
<path d="M305.345 193.619C304.329 192.302 303.341 190.847 302.971 189.091C302.601 187.334 303.026 185.194 304.261 184.467C305.742 183.602 307.485 184.988 308.843 186.319C313.453 190.792 318.063 195.265 322.673 199.752C326.213 192.274 330.699 185.578 335.899 179.98C337.436 178.319 339.823 176.81 341.346 178.676C342.828 180.487 341.908 183.575 340.838 185.674C337.984 191.272 334.623 196.418 330.85 200.987C330.315 201.632 329.752 202.346 329.698 203.306C329.643 204.376 330.26 205.323 330.836 206.133C333.539 209.934 336.228 213.748 338.931 217.549C340.152 219.264 341.456 221.638 340.674 223.614C340.152 224.918 338.849 225.412 337.696 225.123C336.544 224.835 335.542 223.916 334.609 222.955C332.647 220.911 330.877 218.523 329.396 215.875C328.38 214.091 327.297 212.006 325.636 211.635C324.21 211.32 322.92 212.404 321.767 213.446C318.159 216.74 314.537 220.033 310.929 223.326C309.447 224.671 307.224 225.933 305.934 224.122C304.604 222.256 306.332 219.882 307.197 217.728C308.871 213.597 315.264 208.026 316.197 206.435C317.446 204.308 312.726 201.303 311.162 199.903C309.076 198.037 307.128 195.924 305.345 193.605V193.619Z" fill="#0E6175"/>
<path d="M402.195 207.807C403.21 209.124 404.198 210.578 404.568 212.335C404.939 214.091 404.514 216.232 403.279 216.959C401.797 217.823 400.055 216.438 398.696 215.107C394.086 210.633 389.476 206.16 384.867 201.673C381.327 209.151 376.84 215.848 371.64 221.446C370.104 223.106 367.717 224.616 366.194 222.75C364.712 220.938 365.631 217.851 366.701 215.752C369.555 210.153 372.916 205.008 376.689 200.438C377.224 199.793 377.787 199.08 377.842 198.119C377.897 197.049 377.279 196.102 376.703 195.293C374 191.492 371.311 187.677 368.608 183.876C367.387 182.161 366.084 179.787 366.866 177.811C367.387 176.508 368.691 176.014 369.843 176.302C370.996 176.59 371.997 177.51 372.93 178.47C374.892 180.515 376.662 182.902 378.144 185.55C379.159 187.334 380.243 189.42 381.903 189.79C383.33 190.106 384.62 189.022 385.772 187.979C389.38 184.686 393.002 181.393 396.611 178.1C398.093 176.755 400.315 175.493 401.605 177.304C402.936 179.17 401.207 181.544 400.343 183.698C398.669 187.828 392.275 193.399 391.342 194.991C390.094 197.118 394.814 200.123 396.378 201.522C398.463 203.388 400.411 205.502 402.195 207.82V207.807Z" fill="#0E6175"/>
<path d="M289.842 271.544C288.95 272.545 288.03 273.766 287.976 275.344C287.907 277.512 289.636 279.2 291.255 279.269C292.874 279.337 294.369 278.267 295.796 277.265C327.805 254.611 366.523 249.095 401.865 262.172C409.425 264.971 416.848 268.58 424.572 270.213C426.424 270.611 428.798 270.542 429.566 268.264C430.362 265.932 428.77 263.379 427.261 261.746C413.651 247.106 395.266 243.881 377.979 243.675C365.151 243.524 352.35 244.732 339.7 247.257C328.573 249.479 316.266 251.483 306.484 258.934C300.804 263.27 294.959 265.739 289.842 271.53V271.544Z" fill="#0E6175"/>
<path d="M11.0914 173.901C12.7653 164.433 23.3297 157.572 32.6456 159.905C30.5876 155.103 31.9047 149.065 35.76 145.552C39.6153 142.04 45.7482 141.285 50.3444 143.782C51.2636 130.706 63.3509 119.399 76.4672 119.372C89.5698 119.331 101.739 130.555 102.741 143.631C111.069 142.122 119.932 148.832 120.755 157.257C125.105 151.823 133.858 151.7 139.73 155.446C145.602 159.192 149.046 165.75 151.365 172.323C153.409 178.114 154.507 185.276 150.363 189.804C144.258 196.487 133.419 195.238 124.364 195.238C94.0014 195.238 63.6528 195.389 33.2904 195.238C21.6421 195.183 8.73159 187.472 11.1189 173.915L11.0914 173.901Z" fill="#FFDE91"/>
<path d="M626.763 84.2443C625.089 74.7765 614.525 67.9157 605.209 70.2484C607.267 65.4458 605.95 59.4084 602.094 55.8956C598.239 52.3829 592.106 51.6282 587.51 54.1256C586.591 41.0489 574.503 29.7424 561.387 29.715C548.285 29.6738 536.115 40.898 535.113 53.9746C526.785 52.4653 517.922 59.1751 517.099 67.6001C512.75 62.1664 503.996 62.0429 498.124 65.7889C492.252 69.5348 488.808 76.0937 486.49 82.6664C484.445 88.4568 483.348 95.6195 487.491 100.148C493.597 106.83 504.435 105.581 513.491 105.581C543.853 105.581 574.202 105.732 604.564 105.581C616.212 105.526 629.123 97.8149 626.736 84.2581L626.763 84.2443Z" fill="#FFDE91"/>
<path d="M393.975 497.894C388.789 501.516 380.735 496.947 379.871 490.676C379.02 484.406 383.905 478.368 389.887 476.296C395.869 474.224 402.523 475.377 408.436 477.641C407.421 467.391 411.496 456.743 419.096 449.786C426.697 442.829 437.646 439.701 447.771 441.622C449.898 423.756 458.583 406.508 472.508 395.12C486.434 383.731 505.642 378.64 523.135 382.866C540.628 387.079 555.761 400.937 560.344 418.35C572.802 409.019 591.365 408.896 603.932 418.076C616.5 427.255 622.043 444.984 616.925 459.693C629.891 459.336 642.705 467.336 648.097 479.137C661.049 475.981 675.29 488.056 674.261 501.352C671.544 501.887 668.896 502.971 666.125 502.971L393.948 497.894H393.975Z" fill="#FFDE91"/>
</svg>
