<svg width="384" height="314" viewBox="0 0 384 314" fill="none" xmlns="http://www.w3.org/2000/svg">
<path d="M312.193 226.275C311.732 226.275 311.425 225.968 311.425 225.507C311.194 214.602 316.186 204.618 321.101 194.941C322.023 193.098 322.945 191.331 323.789 189.488C331.085 174.358 334.925 159.92 335.309 146.634C335.77 130.659 331.316 115.837 322.561 104.931C322.33 104.624 322.33 104.086 322.714 103.856C323.098 103.626 323.559 103.626 323.789 104.01C332.698 115.222 337.383 130.429 336.845 146.71C336.461 160.227 332.468 174.896 325.172 190.179C324.327 192.022 323.405 193.789 322.484 195.632C317.722 205.155 312.807 214.986 312.961 225.507C312.961 225.968 312.577 226.275 312.193 226.275Z" fill="#111111"/>
<path d="M305.204 226.813H305.127C304.743 226.736 304.436 226.352 304.436 225.968C305.357 217.904 310.196 209.763 318.72 201.853C321.485 199.318 324.404 196.938 327.245 194.557C331.546 191.024 335.924 187.414 339.687 183.267C352.666 168.906 357.735 149.091 353.28 130.275C353.204 129.891 353.434 129.43 353.818 129.354C354.202 129.277 354.663 129.507 354.74 129.891C359.348 149.168 354.125 169.52 340.839 184.266C336.999 188.49 332.544 192.099 328.167 195.709C325.325 198.013 322.407 200.394 319.719 202.928C311.424 210.608 306.816 218.365 305.895 226.045C305.895 226.506 305.588 226.813 305.204 226.813Z" fill="#111111"/>
<path d="M311.347 228.272C310.963 228.272 310.579 227.965 310.579 227.581C309.581 214.218 313.574 201.085 317.338 188.413L318.182 185.648C322.176 172.208 325.862 158 322.944 144.176C322.867 143.792 323.098 143.331 323.558 143.254C323.942 143.177 324.403 143.408 324.48 143.869C327.398 158 323.712 172.515 319.642 186.109L318.797 188.874C315.034 201.392 311.117 214.371 312.115 227.427C312.115 227.811 311.808 228.195 311.347 228.272Z" fill="#111111"/>
<path d="M331.47 144.637L320.564 149.168L320.487 138.416C310.273 140.259 299.444 135.19 293.454 126.742C287.463 118.294 285.927 107.082 288.385 97.0208C289.921 90.6463 293.07 84.5023 298.062 80.2783C305.05 74.4415 315.495 73.0592 323.866 76.6688C332.391 80.5088 338.305 88.4191 339.61 97.6351C340.609 104.854 338.766 112.227 335.54 118.832C333.006 124.054 329.626 128.586 326.401 133.27C324.788 135.574 323.943 136.419 325.326 138.954C325.71 139.645 331.086 144.79 331.47 144.637Z" fill="#111111"/>
<path d="M330.641 104.69C331.664 104.916 332.7 105.108 333.563 105.205C328.976 107.961 324.174 110.314 319.155 112.126L321.199 104.836L321.348 104.305L320.805 104.208C307.147 101.78 295.689 92.6757 290.149 79.9259C287.271 73.2603 286.438 65.8406 287.951 58.6504C289.538 51.6274 293.842 45.1453 300.011 41.3836L300.012 41.3833C308.133 36.4201 319.069 36.7877 327.218 41.6923C335.369 46.598 340.822 55.5961 342.11 65.1387C343.397 74.6781 340.673 84.4649 335.354 92.5199C334.259 94.1619 332.52 95.6241 330.737 97.1234C330.599 97.2399 330.46 97.3566 330.321 97.4737C328.439 99.0611 326.54 100.723 325.64 102.645L325.44 103.074L325.856 103.298C326.161 103.462 326.858 103.696 327.688 103.938C328.539 104.185 329.589 104.457 330.641 104.69Z" fill="#32A8C4" stroke="#111111"/>
<path d="M372.711 92.8737C372.25 83.0433 367.335 73.9809 359.425 68.1441C353.741 64.0737 346.445 61.8465 339.533 63.3825C333.927 64.6113 329.089 68.1441 325.479 72.5217C313.652 86.9601 315.725 108.31 330.241 120.138C336.231 125.053 343.834 127.741 351.591 127.818L344.295 138.339L366.874 136.035C366.106 136.112 356.967 126.819 355.585 125.744C360.653 122.442 362.881 118.141 366.337 113.302C370.637 107.389 372.941 100.246 372.711 92.8737Z" fill="white"/>
<path d="M344.294 138.953C343.987 138.953 343.757 138.723 343.757 138.339C343.757 138.185 343.757 138.109 343.833 138.032L350.515 128.355C331.545 127.741 316.646 111.766 317.261 92.7966C317.491 85.1934 320.256 77.9742 325.094 72.0606C329.088 67.1454 334.233 63.843 339.533 62.691C346.137 61.2318 353.587 62.9982 359.885 67.6062C367.949 73.5198 372.941 82.7358 373.401 92.7966C373.632 100.246 371.328 107.619 366.95 113.609C366.259 114.531 365.645 115.453 365.107 116.297C362.726 119.753 360.499 123.056 356.659 125.744C357.273 126.358 358.272 127.28 359.501 128.509C362.035 130.966 366.259 135.113 367.104 135.497C367.411 135.497 367.641 135.805 367.641 136.112C367.641 136.342 367.411 136.573 367.104 136.649L344.294 138.953ZM344.064 63.5358C342.605 63.5358 341.145 63.6894 339.686 63.9966C334.694 65.0718 329.779 68.2974 325.939 72.9054C314.342 87.1134 316.416 108.08 330.624 119.753C336.537 124.592 343.91 127.203 351.59 127.28C351.821 127.28 351.974 127.433 352.128 127.587C352.205 127.741 352.205 127.971 352.128 128.201L345.6 137.725L365.337 135.728C364.185 134.729 362.189 132.886 358.656 129.43C357.12 127.894 355.737 126.589 355.353 126.281C355.2 126.128 355.123 125.974 355.123 125.821C355.123 125.667 355.2 125.437 355.353 125.36C359.347 122.749 361.497 119.523 364.109 115.837C364.723 114.915 365.337 114.07 366.029 113.149C370.253 107.312 372.48 100.246 372.249 93.027C371.789 83.3502 366.95 74.4414 359.193 68.7582C354.739 65.379 349.517 63.6126 344.064 63.5358Z" fill="#111111"/>
<path d="M71.8071 226.275C71.3463 226.275 71.0391 225.968 71.0391 225.507C71.2695 214.986 66.3543 205.155 61.5927 195.632C60.6711 193.789 59.7495 192.023 58.9047 190.179C51.5319 174.896 47.6151 160.227 47.2311 146.711C46.6935 130.429 51.3783 115.223 60.2871 104.01C60.5175 103.703 61.0551 103.626 61.3623 103.856C61.6695 104.087 61.7463 104.624 61.5159 104.931C52.8375 115.837 48.3063 130.659 48.7671 146.634C49.1511 159.997 53.0679 174.435 60.3639 189.488C61.2087 191.331 62.1303 193.098 63.0519 194.941C67.8903 204.618 72.8823 214.679 72.6519 225.584C72.5751 225.968 72.1911 226.275 71.8071 226.275Z" fill="#111111"/>
<path d="M78.7963 226.813C78.4123 226.813 78.1051 226.506 78.0283 226.122C77.1067 218.442 72.4987 210.608 64.2043 203.005C61.5163 200.47 58.5979 198.09 55.7563 195.786C51.4555 192.253 46.9243 188.566 43.0843 184.342C29.7979 169.674 24.5755 149.322 29.1835 130.045C29.2603 129.661 29.7211 129.354 30.1051 129.507C30.4891 129.584 30.7963 129.968 30.7195 130.429C26.2651 149.245 31.3339 169.059 44.3131 183.421C48.0763 187.568 52.5307 191.178 56.7547 194.71C59.5963 197.014 62.5147 199.395 65.2795 202.006C73.8043 209.917 78.6427 218.058 79.5643 226.122C79.6411 226.506 79.3339 226.89 78.8731 226.966H78.7963V226.813Z" fill="#111111"/>
<path d="M72.7292 228.272C72.2684 228.272 71.9612 227.888 71.9612 227.427C72.8828 214.371 69.0428 201.392 65.2796 188.874L64.4348 186.109C60.3644 172.515 56.678 158.077 59.5964 143.869C59.6732 143.408 60.0572 143.177 60.518 143.254C60.9788 143.331 61.2092 143.715 61.1324 144.176C58.2908 158 61.9004 172.208 65.894 185.648L66.7388 188.413C70.5788 201.085 74.4956 214.218 73.4972 227.581C73.4204 227.965 73.1132 228.272 72.7292 228.272Z" fill="#111111"/>
<mask id="path-11-inside-1_1171_468" fill="white">
<path d="M52.5315 144.637L63.4371 149.168L63.5139 138.416C73.7283 140.259 84.5571 135.19 90.5475 126.742C96.5379 118.294 98.0739 107.082 95.6163 97.0208C94.0803 90.6463 90.9315 84.5023 85.9395 80.2783C78.9507 74.4415 68.5059 73.0592 60.1347 76.6688C51.6099 80.5088 45.6963 88.4191 44.3907 97.6351C43.3923 104.854 45.2355 112.227 48.4611 118.832C50.9955 124.054 54.3747 128.586 57.6003 133.27C59.2131 135.574 60.0579 136.419 58.6755 138.954C58.2147 139.645 52.9155 144.79 52.5315 144.637Z"/>
</mask>
<path d="M52.5315 144.637L63.4371 149.168L63.5139 138.416C73.7283 140.259 84.5571 135.19 90.5475 126.742C96.5379 118.294 98.0739 107.082 95.6163 97.0208C94.0803 90.6463 90.9315 84.5023 85.9395 80.2783C78.9507 74.4415 68.5059 73.0592 60.1347 76.6688C51.6099 80.5088 45.6963 88.4191 44.3907 97.6351C43.3923 104.854 45.2355 112.227 48.4611 118.832C50.9955 124.054 54.3747 128.586 57.6003 133.27C59.2131 135.574 60.0579 136.419 58.6755 138.954C58.2147 139.645 52.9155 144.79 52.5315 144.637Z" fill="#32A8C4"/>
<path d="M52.5315 144.637L52.9029 143.708L52.1478 145.56L52.5315 144.637ZM63.4371 149.168L63.0534 150.091L64.4265 150.662L64.4371 149.175L63.4371 149.168ZM63.5139 138.416L63.6915 137.432L62.5224 137.221L62.514 138.409L63.5139 138.416ZM95.6163 97.0208L94.6441 97.255L94.6449 97.258L95.6163 97.0208ZM85.9395 80.2783L86.5855 79.5149L86.5805 79.5108L85.9395 80.2783ZM60.1347 76.6688L59.7388 75.7505L59.7314 75.7537L59.724 75.757L60.1347 76.6688ZM44.3907 97.6351L43.4006 97.4949L43.4002 97.4981L44.3907 97.6351ZM48.4611 118.832L49.3608 118.395L49.3597 118.393L48.4611 118.832ZM57.6003 133.27L56.7767 133.837L56.7811 133.844L57.6003 133.27ZM58.6755 138.954L59.5076 139.508L59.5322 139.471L59.5534 139.432L58.6755 138.954ZM52.1478 145.56L63.0534 150.091L63.8208 148.244L52.9152 143.713L52.1478 145.56ZM64.4371 149.175L64.5139 138.423L62.514 138.409L62.4372 149.161L64.4371 149.175ZM63.3363 139.4C73.976 141.32 85.1752 136.048 91.3633 127.321L89.7318 126.164C83.9391 134.333 73.4807 139.198 63.6915 137.432L63.3363 139.4ZM91.3633 127.321C97.5449 118.603 99.1039 107.084 96.5878 96.7835L94.6449 97.258C97.044 107.079 95.531 117.986 89.7318 126.164L91.3633 127.321ZM96.5885 96.7865C95.0173 90.266 91.7815 83.9116 86.5855 79.515L85.2936 81.0417C90.0816 85.0931 93.1434 91.0267 94.6442 97.255L96.5885 96.7865ZM86.5805 79.5108C79.2932 73.4247 68.4455 71.9962 59.7388 75.7505L60.5307 77.587C68.5663 74.1221 78.6082 75.4584 85.2985 81.0459L86.5805 79.5108ZM59.724 75.757C50.8857 79.7382 44.7542 87.9404 43.4006 97.4949L45.3808 97.7754C46.6385 88.8979 52.3342 81.2793 60.5454 77.5805L59.724 75.757ZM43.4002 97.4981C42.3665 104.972 44.2798 112.549 47.5626 119.271L49.3597 118.393C46.1913 111.905 44.4182 104.736 45.3813 97.7721L43.4002 97.4981ZM47.5615 119.269C50.1385 124.579 53.5805 129.195 56.7767 133.837L58.424 132.703C55.1689 127.976 51.8526 123.53 49.3608 118.395L47.5615 119.269ZM56.7811 133.844C57.2028 134.446 57.5316 134.894 57.8017 135.314C58.0658 135.726 58.2211 136.033 58.3018 136.308C58.4369 136.767 58.424 137.326 57.7976 138.475L59.5534 139.432C60.3095 138.046 60.5654 136.916 60.2205 135.743C60.0612 135.202 59.7892 134.708 59.4845 134.234C59.1859 133.769 58.8043 133.247 58.4196 132.697L56.7811 133.844ZM57.8435 138.399C57.8482 138.392 57.8315 138.416 57.7726 138.486C57.7197 138.548 57.6484 138.628 57.5586 138.726C57.3793 138.921 57.1416 139.169 56.8621 139.454C56.3039 140.021 55.595 140.716 54.8874 141.386C54.1779 142.057 53.4805 142.693 52.9432 143.147C52.6715 143.377 52.459 143.544 52.3147 143.645C52.2387 143.698 52.2106 143.712 52.2186 143.708C52.2209 143.707 52.2667 143.684 52.3422 143.665C52.3892 143.653 52.6227 143.596 52.9029 143.708L52.1601 145.565C52.4643 145.687 52.7315 145.629 52.821 145.607C52.9392 145.578 53.0366 145.534 53.0989 145.504C53.2269 145.441 53.3525 145.359 53.459 145.285C53.6798 145.131 53.948 144.916 54.2342 144.675C54.8129 144.185 55.5412 143.521 56.2621 142.838C56.9849 142.154 57.7111 141.443 58.2881 140.856C58.5763 140.563 58.8312 140.297 59.0314 140.079C59.2126 139.882 59.3998 139.67 59.5076 139.508L57.8435 138.399Z" fill="#111111" mask="url(#path-11-inside-1_1171_468)"/>
<path d="M48.537 104.624C53.913 108.003 59.5962 110.845 65.5866 112.918L63.2826 104.701C77.1066 102.243 88.7034 93.0271 94.3098 80.1247C97.2282 73.3663 98.073 65.8399 96.537 58.5439C94.9242 51.4015 90.5466 44.7967 84.249 40.9567C75.9546 35.8879 64.8954 36.2719 56.5242 41.2639C48.153 46.2559 42.7002 55.3951 41.3946 65.0719C40.089 74.7487 42.8538 84.6559 48.2298 92.7967C50.6874 96.4831 56.217 99.2479 57.9066 102.857C56.9082 103.395 49.689 105.315 48.537 104.624Z" fill="#111111"/>
<path d="M11.2897 92.8737C11.7505 83.0433 16.6657 73.9809 24.5761 68.1441C30.2593 64.0737 37.5553 61.8465 44.4673 63.3825C50.0737 64.6113 54.9121 68.1441 58.5217 72.5217C66.6625 82.7361 68.3521 96.6369 62.9761 108.464C57.2929 120.138 45.4657 127.664 32.4097 127.894L39.7057 138.416L17.1265 136.112C17.8945 136.189 27.0337 126.896 28.4161 125.821C23.3473 122.518 21.1201 118.218 17.6641 113.379C13.2865 107.466 11.0593 100.246 11.2897 92.8737Z" fill="white"/>
<path d="M39.7053 138.953L17.0493 136.649C16.7421 136.649 16.5117 136.342 16.5117 136.035C16.5117 135.804 16.7421 135.574 17.0493 135.497C17.8941 135.113 22.1181 130.966 24.6525 128.508C25.8045 127.356 26.8029 126.358 27.4941 125.744C23.7309 123.132 21.4269 119.83 19.0461 116.297C18.4317 115.452 17.8173 114.531 17.1261 113.609C12.7485 107.542 10.4445 100.246 10.6749 92.7964C11.2125 82.8124 16.1277 73.5964 24.1917 67.606C30.4893 63.0748 37.8621 61.3084 44.5437 62.7676C49.8429 63.9196 54.9117 67.222 58.9821 72.1372C71.0397 86.806 68.9661 108.54 54.2205 120.598C48.3837 125.436 41.0877 128.124 33.4845 128.432L40.1661 138.108C40.3197 138.339 40.3197 138.723 40.0125 138.876C40.0125 138.953 39.8589 138.953 39.7053 138.953ZM18.8157 135.651L38.5533 137.648L32.0253 128.124C31.8717 127.894 31.8717 127.51 32.1789 127.356C32.2557 127.28 32.4093 127.28 32.4861 127.28C45.3117 127.126 56.9085 119.753 62.5149 108.156C67.8909 96.4828 66.1245 82.8124 58.1373 72.8284C54.2973 68.1436 49.3821 64.9948 44.3901 63.8428C38.0925 62.4604 31.0269 64.15 24.9597 68.5276C17.2029 74.2108 12.3645 83.1196 11.9037 92.7964C11.6733 100.016 13.9005 107.081 18.1245 112.918C18.8157 113.84 19.4301 114.761 20.0445 115.606C22.5789 119.369 24.8061 122.595 28.7997 125.129C28.9533 125.206 29.0301 125.436 29.0301 125.59C29.0301 125.744 28.9533 125.974 28.7997 126.051C28.3389 126.435 27.0333 127.74 25.4973 129.2C21.8877 132.809 19.9677 134.729 18.8157 135.651Z" fill="#111111"/>
<path d="M308.736 146.48H308.582C307.968 146.403 307.507 145.866 307.584 145.174C310.579 119.062 292.147 95.3313 266.112 91.7985C254.054 90.1857 241.766 93.1809 229.939 96.0993C219.494 98.6337 208.665 101.322 197.76 100.861C186.624 100.4 175.795 96.8673 165.35 93.3345C152.217 88.9569 139.776 84.8097 126.643 86.3457C114.432 87.7281 102.297 94.4097 93.5423 104.624C85.5551 113.917 80.1023 126.051 77.7215 139.722C77.6447 140.336 77.0303 140.797 76.3391 140.643C75.7247 140.566 75.2639 139.952 75.4175 139.261C77.8751 125.13 83.5583 112.611 91.7759 103.011C100.992 92.3361 113.587 85.3473 126.413 83.8881C140.006 82.3521 153.293 86.7297 166.118 91.0305C176.409 94.4865 187.161 98.0193 197.913 98.4033C208.512 98.7873 219.11 96.1761 229.478 93.6417C241.536 90.7233 254.054 87.6513 266.496 89.3409C293.76 93.0273 313.113 117.91 309.965 145.251C309.811 146.019 309.35 146.48 308.736 146.48Z" fill="#111111"/>
<path d="M142.082 104.429L142.082 104.429L142.085 104.422C144.399 98.4833 146.176 92.384 147.181 86.125C147.258 85.7182 147.315 85.433 147.382 85.2178C147.448 85.0046 147.507 84.9171 147.554 84.872C147.594 84.8328 147.669 84.7838 147.86 84.7479C148.059 84.7107 148.337 84.6956 148.75 84.6953C150.42 84.7716 152.004 84.9233 153.583 85.2241L153.583 85.2242L153.595 85.2261C156.325 85.6811 159.053 86.4392 161.627 87.4993L161.637 87.5032L161.647 87.5068C162.489 87.8131 163.307 88.2187 163.673 88.8717C163.915 89.4298 163.926 90.0759 163.785 90.7789L163.782 90.7926L163.78 90.8065L161.4 107.549L161.399 107.549L161.398 107.557C161.09 110.026 160.713 112.439 159.335 114.397L159.335 114.397L159.331 114.403C158.322 115.881 156.866 116.911 155.211 117.828C154.514 118.214 153.793 118.575 153.059 118.942C152.92 119.012 152.78 119.082 152.64 119.152C151.767 119.59 150.883 120.044 150.04 120.554C148.728 121.341 147.037 120.938 146.266 119.717L146.266 119.717L146.259 119.707C144.883 117.642 143.508 115.427 142.288 113.215L142.277 113.196L142.266 113.179C141.542 112.093 141.031 110.786 140.81 109.478C140.681 107.848 141.329 106.268 142.004 104.62C142.03 104.557 142.056 104.493 142.082 104.429Z" fill="#32A8C4" stroke="#111111"/>
<path d="M180.638 128.404L180.637 128.4C179.915 126.596 179.98 124.557 180.058 122.384C180.211 118.79 180.517 115.268 180.9 111.588L180.901 111.58L180.901 111.572C181.131 108.442 181.512 105.309 181.896 102.163C181.958 101.799 182.007 101.099 182.063 100.292C182.066 100.251 182.069 100.21 182.072 100.169C182.128 99.3597 182.192 98.4205 182.283 97.5018C182.378 96.5328 182.501 95.6059 182.666 94.8906C182.749 94.5317 182.838 94.2454 182.932 94.0402C183.002 93.8865 183.056 93.8173 183.081 93.7903C183.087 93.7905 183.093 93.7908 183.1 93.7914C183.166 93.7964 183.265 93.8157 183.399 93.8556C183.666 93.9351 184 94.074 184.36 94.2397C184.639 94.3683 184.92 94.5063 185.186 94.6368C185.26 94.6735 185.334 94.7096 185.406 94.7448C185.717 94.897 186.024 95.0439 186.235 95.1143L186.244 95.1171L186.252 95.1196C187.574 95.5085 188.91 95.8236 190.33 95.9815C192.998 96.2952 195.751 96.139 198.352 95.4295L198.354 95.4289C199.046 95.2369 199.761 95.0612 200.413 95.0438C201.041 95.027 201.541 95.1583 201.903 95.4983C202.313 96.1261 202.559 96.7822 202.559 97.4048V97.4349L202.562 97.4648L205.404 120.963C205.404 120.963 205.404 120.964 205.404 120.964C205.637 122.988 205.839 124.916 205.062 126.611L205.062 126.611L205.057 126.622C204.453 128.032 203.202 129.072 201.861 130.188C201.797 130.241 201.732 130.295 201.668 130.348L195.989 134.876L195.975 134.887L195.961 134.9C195.031 135.758 193.956 136.336 192.798 136.702C191.968 136.861 191.116 136.715 190.244 136.392C189.361 136.064 188.494 135.568 187.648 135.068C184.708 133.289 181.796 131.37 180.638 128.404ZM183.051 93.7909C183.051 93.7908 183.052 93.7908 183.053 93.7906L183.051 93.7909Z" fill="#32A8C4" stroke="#111111"/>
<path d="M223.985 116.245L223.983 116.222L223.978 116.2C222.674 109.676 221.446 103.079 220.45 96.4854L220.45 96.4854L220.449 96.4798C220.315 95.6559 220.245 95.0566 220.254 94.6054C220.262 94.1583 220.347 93.919 220.466 93.7649C220.587 93.6086 220.8 93.465 221.226 93.3335C221.654 93.2015 222.231 93.1005 223.019 92.9851C226.079 92.5921 229.061 91.5718 231.729 90.0023L231.757 89.9859L231.782 89.966C232.384 89.4982 233.109 89.2344 233.824 89.2267C234.266 89.2908 234.655 89.5453 235.024 89.9476C235.402 90.3608 235.723 90.889 236.029 91.4246C238.4 95.9376 240.541 100.602 242.375 105.342L242.38 105.355L242.386 105.367C243.055 106.855 243.497 108.481 243.571 110.095C243.641 112.762 242.198 115.247 240.651 117.722C239.481 119.594 238.328 121.366 236.573 122.138L236.565 122.141L236.557 122.145C234.523 123.127 232.101 122.582 229.687 121.959C229.64 121.946 229.593 121.933 229.547 121.919C227.951 121.464 226.419 121.027 225.414 119.9C224.625 118.819 224.128 117.603 223.985 116.245Z" fill="#32A8C4" stroke="#111111"/>
<path d="M148.839 119.216C148.378 119.216 147.917 119.139 147.533 118.909C146.688 118.371 146.074 117.603 145.69 116.681C144.768 114.838 144.154 112.841 143.847 110.768C143.309 106.544 144.461 102.243 145.69 98.6335C145.997 97.7887 146.227 97.0207 146.535 96.1759C146.842 95.2543 147.226 94.3327 147.456 93.4111C147.687 92.7199 147.84 91.9519 147.994 91.1839C148.224 90.1087 148.531 89.0335 148.915 88.0351C150.067 85.4239 154.829 86.9599 157.363 87.8047L157.978 88.0351C158.976 88.2655 159.821 88.8031 160.435 89.5711C161.05 90.5695 160.896 91.8751 160.743 92.7967L158.362 108.617C158.208 110.384 157.747 112.15 156.903 113.686C155.827 115.529 153.984 116.681 152.371 117.757C151.373 118.601 150.144 119.139 148.839 119.216ZM151.757 87.4207C150.759 87.4207 149.914 87.6511 149.607 88.4191C149.223 89.4175 148.915 90.4159 148.762 91.4143C148.608 92.1823 148.378 92.9503 148.147 93.7183C147.84 94.6399 147.533 95.5615 147.226 96.4831C146.919 97.3279 146.611 98.0959 146.381 98.9407C145.229 102.473 144.077 106.621 144.615 110.691C144.922 112.688 145.459 114.608 146.381 116.374C146.688 117.142 147.226 117.833 147.917 118.217C149.146 118.832 150.682 118.064 152.064 117.142C153.6 116.144 155.367 114.992 156.365 113.302C157.133 111.766 157.594 110.153 157.747 108.464L160.128 92.6431C160.359 91.7215 160.282 90.7999 159.898 89.9551C159.36 89.3407 158.669 88.8799 157.824 88.7263L157.21 88.4959C155.443 87.9583 153.677 87.5743 151.757 87.4207Z" fill="white"/>
<path d="M191.079 134.653C189.696 134.653 188.544 133.731 187.469 132.887C185.703 131.427 184.013 129.968 183.168 127.971C182.324 125.975 182.477 123.671 182.554 121.674L183.706 104.087C183.706 103.779 183.706 103.319 183.706 102.858C183.706 101.015 183.629 98.4802 185.242 97.5586C186.317 96.9442 187.853 97.405 189.236 97.789C189.927 98.0194 190.541 98.1729 191.232 98.2497C193.383 98.3265 195.456 97.8657 197.376 96.8673L197.453 96.7906C198.068 96.3298 198.912 96.0994 199.68 96.253C200.448 96.4834 201.293 97.1746 201.216 99.6322C200.986 105.93 201.14 112.304 201.6 118.602C201.831 121.136 202.061 124.055 200.602 126.359C199.757 127.511 198.759 128.432 197.53 129.277C196.685 129.815 195.917 130.506 195.226 131.197C194.919 131.504 194.688 131.811 194.458 132.195C193.613 133.271 192.692 134.423 191.232 134.653C191.309 134.576 191.156 134.653 191.079 134.653ZM183.399 121.674C183.245 123.594 183.092 125.821 183.936 127.664C184.781 129.507 186.317 130.89 188.007 132.272C189.005 133.117 190.234 133.962 191.463 133.808C192.692 133.655 193.383 132.656 194.151 131.581C194.458 131.197 194.688 130.89 194.996 130.583C195.764 129.815 196.532 129.123 197.376 128.509C198.452 127.818 199.45 126.896 200.218 125.821C201.524 123.747 201.293 120.983 201.14 118.602C200.602 112.227 200.448 105.93 200.756 99.5553C200.756 98.4801 200.679 97.1746 199.757 96.9442C199.143 96.8674 198.528 97.0978 198.068 97.405L197.991 97.4817C195.994 98.5569 193.69 99.0946 191.463 98.941C190.695 98.8642 189.927 98.7106 189.236 98.4802C188.007 98.0962 186.624 97.7122 185.78 98.173C184.551 98.7874 184.628 101.091 184.628 102.781C184.628 103.242 184.628 103.703 184.628 104.01L183.399 121.674Z" fill="white"/>
<path d="M232.55 120.752C232.243 120.752 231.936 120.752 231.629 120.675C229.709 120.214 228.019 119.062 226.944 117.296C225.945 115.683 225.254 113.84 224.947 111.997C223.795 107.082 223.027 102.09 222.643 97.0975C222.413 95.1007 222.336 93.7183 224.793 93.1039C226.483 92.6431 228.173 92.2591 229.862 91.9519C230.707 91.7983 231.552 91.5679 232.397 91.4143C233.318 91.1839 234.47 91.0303 235.315 91.5679C235.929 92.0287 236.313 92.7199 236.544 93.4111L240.768 104.854C241.459 106.698 242.227 108.694 241.997 110.768C241.766 112.381 241.229 113.917 240.307 115.299C239.462 116.835 238.233 118.218 236.851 119.293C235.469 120.214 234.009 120.675 232.55 120.752ZM225.638 111.766C226.022 113.533 226.637 115.299 227.558 116.835C228.48 118.371 229.939 119.446 231.705 119.83C233.318 120.061 235.008 119.6 236.313 118.602C237.619 117.603 238.771 116.298 239.539 114.838C240.384 113.61 240.921 112.15 241.152 110.614C241.305 108.694 240.614 106.698 240 105.008L235.776 93.5647C235.622 92.4127 234.547 91.5679 233.395 91.7215C233.088 91.7983 232.857 91.8751 232.55 92.0287L230.016 92.5663C228.326 92.9503 226.637 93.3343 224.947 93.7183C223.104 94.1791 223.181 94.8703 223.334 96.9439C223.795 102.013 224.563 106.928 225.638 111.766Z" fill="white"/>
<path d="M85.2479 152.624C83.1743 134.576 89.0111 116.451 101.299 103.011C102.605 101.552 104.064 100.17 104.755 98.3265C105.37 96.7137 105.37 94.9473 105.523 93.2577C105.677 91.5681 106.214 89.7249 107.52 88.6497C108.826 87.5745 111.206 87.7281 111.974 89.2641C111.437 84.9633 112.666 80.6625 115.354 77.2833C117.197 74.9793 120.038 73.0593 123.418 74.9793C124.262 75.4401 124.954 76.0545 125.414 76.8225C127.334 79.5873 127.258 82.9665 126.95 86.1921C126.72 88.8033 126.336 91.4913 126.797 94.0257C128.41 91.6449 132.634 92.4897 133.786 95.1009C134.938 97.7121 133.632 100.938 131.328 102.704C129.024 104.47 126.106 105.008 123.187 105.315C120.269 105.622 117.35 105.699 114.662 106.698C109.901 108.387 106.368 112.611 103.757 116.989C90.0863 139.491 92.7743 168.214 110.285 187.798C111.821 189.411 113.357 191.178 114.739 192.944C115.43 194.019 115.046 195.478 113.971 196.093C113.357 196.477 112.589 196.554 111.974 196.246C110.362 195.555 108.979 194.403 107.213 192.867C104.218 190.41 101.53 187.645 99.0719 184.65C94.2335 178.736 90.5471 172.054 88.0895 164.912C86.7071 160.995 85.7855 156.848 85.2479 152.624Z" fill="white"/>
<path d="M112.896 197.168C112.512 197.168 112.128 197.091 111.744 196.938C109.977 196.093 108.441 194.941 106.982 193.635L106.828 193.482C103.833 190.947 101.068 188.183 98.6107 185.187C93.7723 179.274 90.0091 172.515 87.5515 165.219C86.1691 161.149 85.1707 157.002 84.7099 152.778C82.6363 134.499 88.5499 116.298 100.915 102.704L101.299 102.32C102.528 101.168 103.526 99.7858 104.294 98.173C104.678 97.021 104.908 95.7922 104.908 94.5634C104.908 94.1026 104.985 93.6418 105.062 93.181C105.292 90.8002 106.06 89.1874 107.289 88.189C108.211 87.4978 109.44 87.1906 110.592 87.4978C110.822 87.5746 111.129 87.6514 111.36 87.805C111.283 83.8882 112.588 80.0482 114.969 76.9762C117.58 73.6738 120.729 72.829 123.724 74.5186C124.569 75.0562 125.337 75.7474 125.952 76.5154C128.025 79.5106 127.872 83.1202 127.564 86.269L127.488 87.3442C127.257 89.1874 127.18 91.0306 127.257 92.8738C128.102 92.2594 129.1 92.029 130.176 92.1826C132.019 92.3362 133.632 93.4114 134.4 95.0242C135.782 98.0194 134.092 101.552 131.788 103.319C129.331 105.239 126.182 105.776 123.417 106.083L121.728 106.237C119.5 106.314 117.196 106.698 115.046 107.389C111.206 108.771 107.673 111.997 104.448 117.373C90.9307 139.645 93.5419 168.138 110.899 187.491L111.974 188.643C113.203 189.949 114.278 191.255 115.353 192.637C116.121 193.635 116.044 195.018 115.276 196.016C114.585 196.707 113.74 197.168 112.896 197.168ZM85.8619 152.624C86.3995 156.771 87.3211 160.919 88.7035 164.835C92.3899 175.587 98.9179 185.187 107.673 192.56L107.827 192.714C109.132 193.943 110.668 195.018 112.281 195.863C112.972 196.17 113.817 195.939 114.278 195.325C114.739 194.787 114.816 193.943 114.355 193.328C113.356 191.946 112.204 190.64 111.052 189.411L109.977 188.259C92.2363 168.445 89.5483 139.415 103.372 116.759C106.752 111.152 110.438 107.696 114.585 106.237C116.812 105.546 119.116 105.162 121.497 105.008C122.035 104.931 122.649 104.931 123.187 104.855C125.798 104.547 128.716 104.087 131.02 102.32C132.94 100.861 134.4 97.8658 133.324 95.4082C132.71 94.1794 131.404 93.3346 130.022 93.2578C128.947 93.1042 127.948 93.565 127.334 94.4098C127.18 94.6402 126.796 94.717 126.566 94.5634C126.412 94.4866 126.336 94.333 126.336 94.1794C126.028 91.8754 126.028 89.4946 126.412 87.1906L126.489 86.1154C126.796 83.197 126.95 79.8178 125.03 77.1298C124.569 76.4386 123.955 75.8242 123.187 75.4402C120.038 73.6738 117.504 75.6706 115.891 77.6674C113.28 80.893 112.128 85.0402 112.665 89.1874C112.665 89.4946 112.512 89.725 112.281 89.8018C111.974 89.8786 111.744 89.725 111.59 89.4946C111.36 89.0338 110.899 88.6498 110.361 88.573C109.593 88.4194 108.748 88.573 108.057 89.0338C107.059 89.8018 106.444 91.1842 106.214 93.2578C106.137 93.7186 106.137 94.1026 106.06 94.5634C105.984 95.869 105.83 97.1746 105.369 98.4802C104.601 100.17 103.526 101.706 102.144 103.011L101.76 103.395C89.5483 116.759 83.7883 134.653 85.8619 152.624Z" fill="#111111"/>
<path d="M150.45 228.82L150.45 228.82L150.458 228.826C153.754 231.298 156.014 234.753 158.248 238.22L158.248 238.22L158.25 238.223L165.314 248.972C165.314 248.973 165.315 248.974 165.315 248.974C166.167 250.291 166.938 251.575 167.079 252.894C167.179 254.149 166.691 255.332 165.845 256.442C164.996 257.557 163.812 258.56 162.6 259.431L162.599 259.432C154.314 265.437 143.035 268.668 133.246 265.581C131.638 265.057 130.034 264.26 128.843 263.223C127.657 262.191 126.917 260.959 126.912 259.543C126.986 258.254 127.419 256.944 128.011 255.76L128.018 255.746L128.024 255.732C130.661 249.528 132.057 242.936 132.134 236.188H132.135V236.182C132.135 235.898 132.132 235.616 132.13 235.335C132.115 233.362 132.1 231.489 132.859 229.781L132.859 229.781L132.862 229.776C134.202 226.672 137.393 225.53 140.96 225.642C144.523 225.754 148.277 227.125 150.45 228.82Z" fill="#32A8C4" stroke="#111111"/>
<path d="M123.966 190.966L123.966 190.966L123.969 190.967C124.614 191.154 125.299 191.234 125.961 191.289C126.178 191.307 126.39 191.322 126.6 191.336C127.045 191.368 127.476 191.399 127.905 191.453C129.143 191.61 130.155 191.946 130.839 192.921C131.987 194.613 131.587 196.844 129.957 198.07C129.275 198.555 128.252 198.744 127.081 198.82C126.597 198.851 126.109 198.863 125.627 198.874C125.533 198.877 125.44 198.879 125.347 198.881C124.784 198.896 124.228 198.915 123.739 198.976L123.739 198.976L123.729 198.978C122.901 199.099 122.105 199.238 121.326 199.375C119.075 199.769 116.964 200.139 114.621 199.972L114.62 199.972C112.408 199.819 110.192 199.214 109.179 197.528C108.607 196.551 108.526 195.42 108.768 194.245C109.011 193.066 109.574 191.876 110.244 190.834L110.244 190.834L110.246 190.831C110.952 189.716 111.871 188.637 112.928 187.878C113.983 187.121 115.148 186.7 116.373 186.836L116.376 186.837C117.683 186.974 118.793 187.716 119.999 188.613C120.113 188.697 120.227 188.784 120.343 188.871C121.418 189.677 122.589 190.556 123.966 190.966Z" fill="#32A8C4" stroke="#111111"/>
<path d="M116.505 161.764C113.894 163.069 110.822 163.684 109.132 166.064C107.596 168.292 107.903 171.21 108.748 173.744C110.13 178.352 113.433 182.807 118.118 183.652C121.727 184.266 125.337 182.576 128.639 181.117C131.942 179.658 135.858 178.352 139.238 179.735C142.617 181.117 144.383 184.496 146.918 186.954C151.756 191.408 158.745 192.637 164.735 190.026C168.191 188.49 171.263 185.111 170.879 181.348C170.495 177.431 166.809 174.743 165.196 171.21C162.354 164.836 166.655 157.386 165.196 150.628C164.428 147.479 162.585 144.637 160.05 142.564C157.516 140.567 154.674 139.031 151.526 138.032C146.073 136.189 139.929 135.652 134.553 137.725C130.636 139.261 127.487 142.256 125.798 146.096C125.106 147.786 125.03 149.629 124.492 151.396C123.878 153.392 123.033 155.312 121.881 157.002C120.652 158.999 118.732 160.688 116.505 161.764Z" fill="#111111"/>
<path d="M120.652 148.323C118.579 159.382 120.576 170.979 124.876 181.424C125.414 182.96 126.259 184.419 127.257 185.725C128.256 187.03 129.792 187.875 131.404 188.106C133.785 188.336 135.936 186.8 137.625 185.11C142.694 180.195 145.766 173.667 149.222 167.446C150.681 164.758 152.217 162.147 152.985 159.152C153.753 156.157 153.6 152.931 151.833 150.397C150.528 148.477 148.377 147.248 146.304 146.25C143.078 144.714 139.776 143.562 136.32 142.794C133.248 142.179 130.022 141.872 126.873 142.102C123.033 142.41 121.267 144.867 120.652 148.323Z" fill="white"/>
<path d="M131.788 188.72C131.635 188.72 131.481 188.72 131.328 188.72C129.484 188.49 127.872 187.568 126.796 186.109C125.721 184.727 124.953 183.267 124.339 181.655C119.654 170.211 118.195 158.615 120.115 148.247C120.883 144.099 123.187 141.872 126.796 141.642C130.022 141.488 133.248 141.719 136.396 142.333C139.852 143.178 143.232 144.33 146.457 145.866C148.531 146.787 150.758 148.093 152.217 150.167C153.907 152.547 154.368 155.927 153.446 159.383C152.601 162.071 151.449 164.682 149.99 167.063L149.606 167.754C149.145 168.675 148.608 169.597 148.147 170.442C145.305 175.741 142.31 181.271 137.932 185.495C135.782 187.645 133.785 188.72 131.788 188.72ZM121.19 148.4C119.27 158.538 120.729 169.904 125.337 181.194C125.875 182.653 126.643 184.112 127.641 185.341C128.563 186.57 129.945 187.338 131.404 187.568C133.171 187.722 135.014 186.8 137.088 184.803C141.388 180.656 144.23 175.28 147.072 170.058L148.531 167.293L148.915 166.602C150.297 164.298 151.449 161.763 152.294 159.152C153.062 156.003 152.755 153.008 151.219 150.858C149.913 149.015 147.84 147.863 145.92 146.941C142.771 145.482 139.468 144.33 136.089 143.562C133.017 142.947 129.945 142.717 126.796 142.871C123.801 142.947 121.881 144.791 121.19 148.4Z" fill="#111111"/>
<path d="M127.18 163.683C127.103 163.453 126.95 163.222 126.719 163.299C126.489 163.376 126.489 163.53 126.489 163.683C126.335 164.298 125.49 167.754 126.873 167.83C128.255 167.907 127.487 164.298 127.18 163.683Z" fill="#111111"/>
<path d="M138.009 166.678C138.009 166.448 138.009 166.295 137.932 166.064C137.241 164.835 136.089 168.061 136.473 168.982C137.011 170.518 137.932 167.293 138.009 166.678Z" fill="#111111"/>
<path d="M145.382 137.956C147.302 139.799 148.991 141.949 150.374 144.176C151.756 146.48 152.447 149.168 152.371 151.856C152.14 155.312 150.374 158.615 150.758 161.994C150.758 162.916 151.219 163.76 151.91 164.298C152.601 164.605 153.292 164.605 154.06 164.452C156.902 163.914 159.513 162.608 161.587 160.688C163.66 158.768 165.119 156.157 165.58 153.316C165.964 150.013 165.273 146.711 163.737 143.869C162.969 142.18 161.817 140.644 160.435 139.415C158.899 138.186 157.132 137.264 155.289 136.573C152.601 135.498 149.913 135.344 147.148 134.73C146.38 134.576 145.305 134.192 144.691 134.884C143.692 135.805 144.614 137.188 145.382 137.956Z" fill="#111111"/>
<path d="M137.087 138.109C137.471 138.57 137.932 138.954 138.469 139.261C140.696 140.797 142.77 142.563 144.536 144.483C146.38 146.48 147.685 148.861 148.376 151.472C148.76 153.238 148.914 155.158 148.76 157.002C148.684 157.462 148.76 158 148.837 158.461C148.991 158.922 149.298 159.306 149.836 159.459C150.68 159.613 151.295 158.768 151.679 158C155.519 150.397 153.061 141.104 145.919 136.419C144.076 135.19 141.925 134.499 139.698 134.422C137.855 134.422 135.551 136.189 137.087 138.109Z" fill="white"/>
<path d="M150.143 160.15C150.066 160.15 149.912 160.15 149.836 160.074C149.144 159.92 148.607 159.382 148.376 158.691C148.223 158.154 148.223 157.616 148.223 157.078C148.376 155.312 148.223 153.469 147.839 151.702C147.148 149.168 145.919 146.864 144.152 144.944C142.386 143.024 140.389 141.258 138.162 139.798C137.624 139.414 137.087 139.03 136.626 138.493C135.935 137.802 135.781 136.726 136.242 135.805C137.01 134.576 138.316 133.885 139.775 133.885C142.156 133.962 144.383 134.653 146.38 135.958C153.752 140.874 156.287 150.474 152.293 158.307C151.756 159.536 150.988 160.15 150.143 160.15ZM139.621 135.037C138.7 135.037 137.855 135.498 137.317 136.266C137.087 136.726 137.164 137.341 137.548 137.725C137.932 138.109 138.316 138.493 138.7 138.8C141.004 140.336 143.077 142.179 144.92 144.176C146.84 146.25 148.146 148.707 148.837 151.395C149.221 153.238 149.375 155.158 149.298 157.078C149.221 157.539 149.298 157.923 149.375 158.384C149.452 158.691 149.605 158.922 149.912 158.998C150.373 159.075 150.834 158.461 151.141 157.923C154.828 150.55 152.447 141.565 145.612 137.034C143.845 135.882 141.772 135.19 139.621 135.114V135.037Z" fill="#111111"/>
<path d="M140.851 162.147C137.472 162.992 134.016 162.992 130.56 162.224C123.801 160.534 118.579 155.005 115.66 148.63C114.201 145.405 113.203 141.795 113.971 138.339C114.278 136.496 115.353 134.806 116.889 133.654C118.579 132.579 120.806 132.502 122.803 132.733C128.409 133.27 133.785 135.267 139.084 137.264C141.465 138.032 143.769 139.184 145.843 140.643C148.3 142.64 149.913 145.481 150.604 148.553C151.219 151.241 151.219 154.006 150.681 156.771C150.22 159.152 147.916 159.689 145.843 160.457C144.23 161.225 142.54 161.763 140.851 162.147Z" fill="#111111"/>
<path d="M133.555 178.276C134.093 177.738 134.63 177.124 135.398 177.2C135.782 177.277 136.089 177.508 136.243 177.815C136.397 178.122 136.473 178.506 136.473 178.89C136.473 180.887 134.861 182.5 132.864 182.5C132.326 182.5 131.789 182.346 131.328 182.116C130.79 181.885 130.406 181.501 130.253 180.964C129.945 179.965 130.713 179.888 131.328 179.658C132.249 179.504 132.941 178.967 133.555 178.276Z" fill="#111111"/>
<path d="M121.344 210.992C122.496 215.831 127.028 219.517 128.717 224.202C129.792 227.043 129.946 230.499 132.48 232.419C135.86 234.954 141.543 232.88 143.847 229.501C146.151 226.122 145.997 221.821 145.844 217.827L145.229 203.696C145.152 201.085 144.999 198.397 143.693 196.093C141.312 191.792 132.788 188.797 128.64 192.944C124.263 197.322 119.962 205.155 121.344 210.992Z" fill="white"/>
<path d="M136.166 234.109C134.707 234.109 133.325 233.725 132.173 232.88C130.099 231.344 129.485 229.04 128.87 226.813C128.64 226.045 128.409 225.2 128.179 224.432C127.257 222.359 126.105 220.362 124.723 218.596C123.11 216.292 121.421 213.911 120.729 211.146C119.347 205.232 123.417 197.322 128.256 192.56C130.022 190.794 132.633 190.103 135.552 190.564C139.238 191.101 142.771 193.252 144.153 195.863C145.536 198.32 145.613 201.162 145.766 203.696L146.381 217.828C146.534 221.514 146.765 226.122 144.307 229.808C142.771 232.036 140.39 233.572 137.702 234.032C137.165 234.032 136.704 234.109 136.166 234.109ZM133.939 191.562C132.096 191.485 130.329 192.1 129.024 193.328C124.569 197.783 120.576 205.386 121.805 210.839C122.419 213.373 123.955 215.524 125.568 217.828C127.027 219.671 128.256 221.744 129.177 223.972C129.485 224.74 129.715 225.584 129.945 226.429C130.56 228.58 131.097 230.653 132.787 231.882C134.169 232.804 135.782 233.111 137.395 232.804C139.776 232.343 141.849 231.037 143.232 229.117C145.459 225.738 145.305 221.36 145.152 217.828L144.537 203.696C144.461 201.316 144.307 198.628 143.078 196.4C141.849 194.173 138.624 192.176 135.321 191.639C134.861 191.562 134.4 191.562 133.939 191.562Z" fill="#111111"/>
<path d="M151.833 222.205C151.372 227.12 145.996 230.039 141.157 230.73C135.628 231.498 130.098 230.269 124.492 230.115C118.117 229.885 105.445 231.575 108.441 233.418C108.748 234.263 109.669 234.723 110.514 234.416C110.745 234.339 110.898 234.186 111.129 234.032C108.671 235.952 106.213 238.179 105.292 241.175C104.37 244.17 105.369 247.933 108.21 249.239C110.514 250.237 113.202 249.392 115.276 248.01C117.349 246.627 119.039 244.707 121.036 243.248C125.106 240.33 130.252 239.485 135.167 238.947C140.082 238.41 145.228 238.179 149.836 236.259C154.444 234.339 158.514 230.269 158.821 225.277C159.052 221.053 156.671 217.213 154.367 213.757C153.138 211.991 146.994 203.005 146.303 209.379C145.842 213.834 152.293 217.059 151.833 222.205Z" fill="white"/>
<path d="M110.438 250.314C109.593 250.314 108.825 250.16 108.057 249.853C104.755 248.394 103.833 244.17 104.832 241.098C105.677 238.717 107.213 236.567 109.286 234.954C108.749 234.724 108.288 234.34 108.057 233.802C107.597 233.572 107.443 233.034 107.597 232.573C108.288 230.269 120.499 229.424 124.646 229.501C126.566 229.578 128.563 229.732 130.406 229.962C133.939 230.346 137.625 230.653 141.235 230.192C145.843 229.578 150.989 226.813 151.449 222.205C151.68 219.748 150.144 217.674 148.608 215.677C147.072 213.68 145.613 211.76 145.843 209.38C145.997 207.767 146.534 206.845 147.456 206.615C149.837 206.077 153.523 211.223 154.982 213.45C157.056 216.522 159.821 220.746 159.59 225.354C159.283 230.039 155.673 234.57 150.297 236.874C146.227 238.564 141.773 239.024 137.472 239.408L135.475 239.639C130.56 240.1 125.568 241.021 121.574 243.863C120.653 244.554 119.731 245.322 118.886 246.09C117.888 247.012 116.889 247.856 115.814 248.624C114.125 249.7 112.281 250.314 110.438 250.314ZM111.129 234.877C109.056 236.49 106.752 238.64 105.907 241.482C105.062 244.093 105.83 247.626 108.518 248.855C110.361 249.623 112.742 249.239 115.046 247.703C116.121 246.935 117.12 246.167 118.041 245.245C118.886 244.4 119.808 243.632 120.806 242.941C124.953 239.946 130.176 239.101 135.245 238.564L137.241 238.41C141.465 238.026 145.843 237.565 149.683 235.952C153.523 234.34 157.977 230.653 158.285 225.431C158.515 221.591 156.441 218.058 153.907 214.218C151.373 210.378 148.608 207.613 147.609 207.844C147.225 207.92 146.995 208.535 146.918 209.533C146.688 211.453 148.07 213.22 149.453 215.063C151.065 217.213 152.755 219.44 152.448 222.359C151.987 227.581 146.304 230.73 141.235 231.421C137.549 231.882 133.785 231.575 130.176 231.191C128.333 231.037 126.413 230.807 124.493 230.73C118.349 230.5 109.67 231.882 108.672 232.88C108.749 232.88 108.749 232.957 108.825 232.957C108.979 233.034 109.056 233.188 109.056 233.341C109.133 233.648 109.44 233.879 109.747 233.956C109.977 234.032 110.208 234.032 110.438 233.956L110.745 233.725C110.976 233.572 111.283 233.572 111.513 233.802C111.744 234.032 111.744 234.34 111.513 234.57C111.437 234.647 111.283 234.724 111.129 234.877Z" fill="#111111"/>
<path d="M145.593 194.929L145.6 194.938L145.607 194.947C147.568 197.378 149.996 199.414 152.655 200.978L152.655 200.978L152.659 200.98C152.794 201.058 152.93 201.136 153.066 201.214C153.952 201.721 154.845 202.232 155.613 202.84C156.488 203.533 157.145 204.311 157.415 205.276C157.683 206.501 157.339 207.871 156.523 208.823L156.517 208.83L156.512 208.836C155.628 209.941 154.602 210.819 153.431 211.478L153.421 211.483L153.412 211.489C150.992 213.002 148.498 214.135 145.776 214.967C144.445 215.359 143.158 215.675 142.04 215.214L142.04 215.214L142.029 215.21C141.182 214.884 140.57 214.209 140.115 213.326C139.658 212.439 139.381 211.381 139.192 210.363L139.192 210.363L139.191 210.355C138.268 205.819 137.274 200.925 136.74 196.418C136.527 194.572 137.263 192.687 138.459 191.663C139.05 191.157 139.741 190.87 140.484 190.875C141.224 190.88 142.072 191.175 142.978 191.936C143.942 192.828 144.764 193.798 145.593 194.929Z" fill="#32A8C4" stroke="#111111"/>
<path d="M108.288 249.162C108.211 249.162 108.134 249.162 108.134 249.085C107.98 249.008 107.904 248.778 107.98 248.547C109.977 244.938 113.203 242.096 117.043 240.56C117.273 240.483 117.427 240.56 117.504 240.79C117.58 241.021 117.504 241.174 117.273 241.251C113.587 242.71 110.515 245.475 108.595 248.931C108.518 249.085 108.441 249.162 108.288 249.162Z" fill="#111111"/>
<path d="M109.977 103.396C109.132 103.396 108.287 103.012 107.75 102.32C107.212 101.783 106.982 100.938 107.212 100.17C107.289 99.9396 107.519 99.8628 107.673 99.8628C107.903 99.9396 107.98 100.17 107.903 100.324C107.75 100.861 107.903 101.399 108.287 101.783C108.748 102.32 109.439 102.628 110.207 102.551C111.59 102.32 112.511 100.938 112.818 99.786C113.049 98.3268 112.972 96.8676 112.588 95.4852V95.3316C112.204 93.8724 112.127 92.3364 112.281 90.8004C112.281 90.6468 112.511 90.4932 112.665 90.4932C112.895 90.4932 113.049 90.6468 113.049 90.8004C113.202 92.9508 113.663 95.1012 114.431 97.098C115.199 99.0948 116.812 100.554 118.886 101.245C120.959 101.706 123.11 100.938 124.415 99.3252C125.721 97.6356 126.258 95.4852 125.721 93.4116C125.644 93.1812 125.798 93.0276 126.028 92.9508C126.258 92.874 126.412 93.0276 126.489 93.258C127.026 95.562 126.489 97.9428 125.03 99.786C123.494 101.629 121.036 102.474 118.732 101.936C116.505 101.245 114.662 99.5556 113.817 97.4052V97.3284C113.894 98.1732 113.894 99.018 113.74 99.8628C113.433 101.399 112.281 103.012 110.514 103.242C110.284 103.396 110.13 103.396 109.977 103.396Z" fill="#111111"/>
<path d="M233.548 176.662C230.399 178.429 226.866 179.35 223.257 179.35C221.413 179.35 219.033 179.427 218.418 181.194C218.034 182.269 218.649 183.421 219.34 184.342C223.794 190.64 231.474 194.25 239.154 195.018C246.834 195.786 254.591 193.789 261.657 190.64C265.036 189.181 268.722 186.723 268.799 182.96C268.876 178.966 264.882 176.202 262.194 173.898C259.737 171.747 257.125 168.522 254.053 167.139C250.981 165.757 247.065 167.216 244.223 168.829C242.764 169.674 234.777 177.277 233.548 176.662Z" fill="#111111"/>
<path d="M243.916 166.602C242.918 168.598 242.918 170.979 243.993 172.976C245.222 175.28 247.679 176.586 249.983 177.661C252.748 178.966 255.82 180.042 258.815 179.427C261.811 178.813 264.575 175.971 264.038 172.976C263.577 170.442 261.119 168.829 258.892 167.523C254.515 164.989 247.449 159.152 243.916 166.602Z" fill="#111111"/>
<path d="M260.736 121.981C255.821 119.984 249.753 120.291 245.76 123.21C241.997 125.898 240.461 130.199 237.696 133.731C235.315 136.727 231.936 139.415 231.629 143.101C231.398 146.019 233.088 148.707 234.854 151.242C240.153 158.615 246.374 165.373 253.363 171.21C255.053 172.746 257.049 173.975 259.2 174.819C261.427 175.511 264.192 175.28 265.651 173.667C267.11 172.055 267.033 169.674 266.88 167.523C266.342 160.381 266.726 153.162 267.955 146.096C268.569 142.563 269.414 139.107 270.489 135.651C271.411 132.503 271.181 131.12 269.03 128.355C266.803 125.514 263.961 123.287 260.736 121.981Z" fill="#111111"/>
<path d="M269.414 168.138C269.03 169.52 268.415 170.749 267.494 171.824C266.342 172.976 264.729 173.667 263.116 173.514C261.043 173.36 259.353 171.978 257.971 170.595C248.985 161.533 246.297 149.936 244.07 138.877C243.839 137.648 243.609 136.419 244.147 135.344C245.222 133.347 248.524 132.963 251.289 133.04C257.894 133.194 267.571 134.807 272.793 138.647C275.174 140.413 273.561 144.714 273.331 147.171C273.023 150.474 272.563 153.776 272.025 157.079C271.487 160.842 270.566 164.528 269.414 168.138Z" fill="white"/>
<path d="M263.423 174.128C263.27 174.128 263.116 174.128 262.963 174.128C260.582 173.975 258.815 172.439 257.51 171.056C248.755 162.147 245.913 151.242 243.379 138.954C243.148 137.802 242.841 136.266 243.532 135.037C244.761 132.733 248.371 132.349 251.212 132.426C257.894 132.579 267.647 134.115 273.1 138.186C275.251 139.799 274.636 142.871 274.175 145.405C274.022 146.096 273.945 146.711 273.868 147.248C273.484 151.165 273.1 154.314 272.563 157.232C271.948 160.995 271.027 164.759 269.875 168.368C269.491 169.827 268.799 171.133 267.801 172.285C266.726 173.437 265.113 174.128 263.423 174.128ZM250.828 133.578C248.755 133.578 245.606 133.885 244.607 135.651C244.147 136.496 244.3 137.571 244.531 138.8C246.988 150.935 249.753 161.61 258.278 170.288C259.43 171.44 261.043 172.823 263.039 172.976C264.499 173.053 265.958 172.515 266.956 171.44C267.801 170.442 268.415 169.213 268.799 167.984C269.951 164.375 270.873 160.688 271.487 157.002C271.948 154.16 272.409 151.011 272.793 147.095C272.87 146.48 272.947 145.866 273.1 145.175C273.561 142.871 274.022 140.259 272.486 139.107C267.647 135.498 258.355 133.731 251.289 133.578H250.828Z" fill="#111111"/>
<path d="M273.408 134.192C275.558 136.419 277.401 138.954 278.86 141.719C279.475 142.717 280.089 143.946 279.475 144.944C278.707 146.25 276.326 146.25 274.483 146.019L249.446 143.639C247.296 143.408 244.915 143.178 243.302 141.872C241.305 140.259 241.459 137.648 242.457 135.728C243.993 132.733 247.142 130.429 251.059 129.431C255.052 128.355 259.123 129.2 263.347 129.584C267.11 129.891 270.72 131.504 273.408 134.192Z" fill="#111111"/>
<path d="M264.96 164.682C265.19 164.605 265.498 164.682 265.574 164.912C265.574 164.989 265.574 165.066 265.651 165.066C265.651 165.68 265.574 166.294 265.421 166.909C265.19 167.754 264.653 168.445 263.885 168.829C263.117 169.136 262.272 169.059 261.581 168.752C260.429 168.291 257.587 165.91 259.891 165.296C260.659 165.066 261.811 165.45 262.733 165.296C263.501 165.219 264.269 164.989 264.96 164.682Z" fill="#111111"/>
<path d="M265.343 148.938C266.034 149.476 265.957 150.474 265.804 151.319C265.727 151.703 265.65 152.087 265.496 152.394C265.266 152.932 264.652 153.162 264.191 152.932C263.884 152.778 263.653 152.548 263.576 152.164C263.423 151.703 263.423 151.242 263.5 150.781C263.5 150.244 263.653 149.706 263.884 149.245C264.114 148.784 264.728 148.554 265.266 148.631" fill="#111111"/>
<path d="M260.121 150.013C260.429 150.858 260.505 151.779 260.352 152.624C260.352 153.085 260.121 153.469 259.814 153.699C259.43 153.853 258.969 153.699 258.662 153.392C258.432 153.085 258.201 152.624 258.125 152.24C257.971 151.703 257.817 151.165 257.817 150.627C257.817 150.09 258.125 149.552 258.585 149.322C259.046 149.091 259.584 149.322 259.814 149.783V149.859" fill="#111111"/>
<path d="M258.892 176.586C256.588 176.509 254.284 175.818 252.364 174.512C249.599 172.746 247.526 170.288 245.452 167.907C245.299 167.754 245.299 167.523 245.452 167.37C245.606 167.216 245.836 167.216 245.99 167.37C247.986 169.75 250.06 172.131 252.671 173.898C255.59 175.741 258.738 176.355 261.35 175.434C261.58 175.357 261.734 175.51 261.811 175.664C261.887 175.818 261.734 176.048 261.58 176.125C260.735 176.432 259.814 176.586 258.892 176.586Z" fill="white"/>
<path d="M295.91 152.624C297.984 134.576 292.147 116.451 279.859 103.011C278.553 101.552 277.094 100.17 276.403 98.3265C275.788 96.7137 275.788 94.9473 275.635 93.2577C275.481 91.5681 274.944 89.7249 273.638 88.6497C272.332 87.5745 269.952 87.7281 269.184 89.2641C269.721 84.9633 268.492 80.6625 265.804 77.2833C263.961 74.9793 261.12 73.0593 257.74 74.9793C256.972 75.4401 256.281 76.0545 255.744 76.8225C253.824 79.5873 253.9 82.9665 254.208 86.1921C254.438 88.8033 254.822 91.4913 254.361 94.0257C252.748 91.6449 248.524 92.4897 247.372 95.1009C246.22 97.7121 247.526 100.938 249.83 102.704C252.134 104.47 255.052 105.008 257.971 105.315C260.889 105.622 263.731 105.699 266.496 106.698C271.334 108.387 274.79 112.611 277.401 116.989C291.072 139.491 288.384 168.214 270.873 187.798C269.337 189.411 267.801 191.178 266.419 192.944C265.728 194.019 266.112 195.478 267.187 196.093C267.801 196.477 268.569 196.554 269.184 196.246C270.796 195.555 272.102 194.403 273.945 192.867C276.864 190.41 279.628 187.645 282.086 184.65C286.924 178.736 290.611 172.054 293.068 164.912C294.451 160.995 295.372 156.848 295.91 152.624Z" fill="white"/>
<path d="M268.261 197.168C267.416 197.168 266.571 196.784 266.034 196.093C265.189 195.095 265.189 193.712 265.957 192.714C267.032 191.331 268.107 189.949 269.336 188.72L270.411 187.491C287.768 168.061 290.456 139.568 276.939 117.373C273.714 111.997 270.181 108.771 266.341 107.389C264.191 106.698 261.963 106.314 259.659 106.237L257.97 106.083C255.205 105.776 252.056 105.239 249.599 103.319C247.295 101.552 245.605 98.0194 246.987 95.0242C247.832 93.4114 249.445 92.3362 251.211 92.1826C252.21 92.029 253.285 92.3362 254.13 92.8738C254.207 91.0306 254.13 89.1874 253.899 87.3442L253.823 86.269C253.515 83.1202 253.362 79.5106 255.435 76.5154C256.05 75.6706 256.741 74.9794 257.663 74.5186C260.658 72.829 263.807 73.6738 266.418 76.9762C268.875 80.0482 270.104 83.8882 270.027 87.805C270.258 87.6514 270.565 87.5746 270.795 87.4978C271.947 87.1906 273.176 87.4978 274.098 88.189C275.327 89.1874 276.095 90.8002 276.325 93.181C276.402 93.6418 276.402 94.1026 276.479 94.5634C276.479 95.7922 276.709 97.021 277.093 98.173C277.784 99.709 278.783 101.091 280.088 102.32L280.472 102.704C292.837 116.298 298.751 134.499 296.677 152.778C296.139 157.002 295.218 161.226 293.835 165.219C291.378 172.515 287.615 179.274 282.699 185.187C280.242 188.183 277.477 190.947 274.482 193.482L274.328 193.635C272.946 194.941 271.333 196.093 269.567 196.938C269.029 197.091 268.645 197.168 268.261 197.168ZM251.519 93.2578H251.135C249.752 93.3346 248.523 94.1794 247.832 95.4082C246.68 97.8658 248.216 100.861 250.136 102.32C252.363 104.087 255.359 104.547 257.97 104.855C258.507 104.931 259.122 104.931 259.659 105.008C262.04 105.085 264.344 105.546 266.571 106.237C270.719 107.696 274.405 111.152 277.784 116.759C291.608 139.415 288.92 168.522 271.179 188.259C270.795 188.643 270.488 189.027 270.104 189.411C268.952 190.64 267.8 191.946 266.802 193.328C266.341 193.943 266.418 194.711 266.879 195.325C267.339 195.939 268.184 196.17 268.875 195.863C270.488 195.018 272.024 193.943 273.33 192.714L273.483 192.56C276.402 190.103 279.09 187.338 281.547 184.419C286.309 178.583 289.995 171.978 292.453 164.835C293.835 160.919 294.757 156.771 295.295 152.624C297.368 134.73 291.531 116.759 279.397 103.472L279.013 103.088C277.631 101.783 276.555 100.323 275.787 98.557C275.403 97.3282 275.173 95.9458 275.096 94.6402C275.096 94.1794 275.019 93.7954 275.019 93.3346C274.789 91.3378 274.175 89.9554 273.176 89.1106C272.485 88.6498 271.64 88.4194 270.872 88.6498C270.335 88.7266 269.874 89.1106 269.643 89.5714C269.49 89.8018 269.259 89.9554 268.952 89.8786C268.645 89.8018 268.491 89.5714 268.568 89.2642C269.029 85.117 267.877 80.9698 265.266 77.7442C263.653 75.7474 261.119 73.7506 257.97 75.517C257.202 75.9778 256.587 76.5154 256.127 77.2066C254.283 79.8946 254.437 83.2738 254.667 86.1922L254.744 87.2674C255.128 89.5714 255.128 91.9522 254.821 94.2562C254.744 94.4866 254.591 94.6402 254.36 94.717C254.13 94.7938 253.899 94.6402 253.746 94.4866C253.362 93.7186 252.44 93.2578 251.519 93.2578Z" fill="#111111"/>
<path d="M271.103 103.395C271.027 103.395 270.873 103.395 270.719 103.395C268.953 103.165 267.801 101.552 267.494 100.016C267.34 99.1713 267.263 98.3265 267.417 97.4817V97.5585C266.572 99.7089 264.729 101.398 262.502 102.09C260.198 102.627 257.74 101.782 256.204 99.9393C254.745 98.0961 254.207 95.7153 254.745 93.4113C254.822 93.1809 254.975 93.0273 255.206 93.1041C255.436 93.1809 255.59 93.3345 255.513 93.5649C255.052 95.6385 255.513 97.7889 256.819 99.4785C258.201 101.091 260.275 101.859 262.348 101.398C264.345 100.784 265.958 99.2481 266.803 97.2513C267.571 95.2545 268.031 93.1041 268.262 90.9537C268.262 90.8001 268.415 90.6465 268.646 90.6465C268.799 90.6465 269.03 90.8001 269.03 90.9537C269.183 92.4897 269.107 94.0257 268.723 95.4849V95.6385C268.339 97.0209 268.262 98.5569 268.492 99.9393C268.799 101.168 269.721 102.55 271.103 102.704C271.795 102.781 272.563 102.474 273.023 101.936C273.407 101.552 273.561 101.014 273.407 100.477C273.331 100.246 273.484 100.093 273.638 100.016C273.868 99.9393 274.022 100.093 274.099 100.323C274.329 101.091 274.099 101.936 273.561 102.474C272.793 103.011 271.948 103.395 271.103 103.395Z" fill="#111111"/>
<path d="M257 185.601L256.998 185.612C256.796 186.448 256.696 187.254 256.593 188.087C256.562 188.33 256.532 188.576 256.498 188.825C256.353 189.912 256.154 191.037 255.67 192.21C254.679 194.724 253.84 197.319 253.075 199.921L253.074 199.923C251.232 206.062 249.467 212.201 247.779 218.416C247.472 219.606 247.178 220.848 247.113 222.04C247.049 223.229 247.218 224.322 247.795 225.24C248.758 226.753 250.659 227.561 252.631 228.015L252.638 228.017C257.715 229.268 263.006 229.23 268.023 227.903C267.047 219.446 266.19 210.334 269.962 202.481L269.963 202.479C271.336 199.655 273.251 197.178 275.318 194.84C276.349 193.674 277.422 192.539 278.486 191.412L278.495 191.403C279.564 190.272 280.623 189.15 281.635 188.005L281.636 188.003C298.529 169.066 303.984 140.785 295.382 116.941C289.042 119.288 282.773 121.912 276.642 124.814C285.052 139.903 283.961 159.811 273.893 173.803C271.957 176.589 269.409 179.332 265.92 180.144C265.919 180.145 265.918 180.145 265.918 180.145L265.805 179.658C265.056 179.838 264.284 179.912 263.516 179.986C262.314 180.102 261.122 180.218 260.045 180.733L257 185.601ZM257 185.601L257.003 185.589C257.357 183.747 258.562 182.109 260.271 181.179L257 185.601Z" fill="#32A8C4" stroke="#111111"/>
<path d="M267.187 203.466C266.573 206.615 264.653 209.226 262.733 211.683L250.522 227.427C250.061 228.042 249.6 228.579 249.139 229.117C249.293 230.346 249.37 231.575 249.446 232.803C249.83 239.485 250.214 246.09 250.598 252.771C250.829 256.688 250.829 261.143 247.987 263.907C245.376 266.365 241.459 266.442 237.926 266.365C234.931 266.288 231.859 266.211 229.171 264.983C225.485 263.216 223.104 259.607 221.491 255.843C218.419 249.008 217.19 241.098 219.11 233.879C220.57 228.349 225.408 222.359 231.014 219.44C231.859 212.989 232.704 206.461 233.472 199.933C234.086 195.325 234.701 190.563 237.005 186.723C239.232 182.96 242.918 180.272 247.219 179.427C250.291 178.813 256.435 178.659 258.816 181.347C260.813 183.575 262.349 188.874 264.115 191.715C266.112 195.095 267.955 199.242 267.187 203.466Z" fill="white"/>
<path d="M239.154 267.056H237.848C234.93 266.979 231.704 266.979 228.786 265.597C225.56 264.061 222.949 260.989 220.799 256.15C217.42 248.547 216.575 240.56 218.418 233.801C219.954 228.118 224.869 222.128 230.399 219.209L232.856 200.009C233.394 195.632 234.085 190.64 236.466 186.569C238.77 182.653 242.61 179.888 247.141 178.966C249.599 178.505 256.511 177.968 259.276 181.04C260.504 182.422 261.503 184.803 262.501 187.184C263.116 188.643 263.807 190.102 264.575 191.485C266.341 194.403 268.645 198.857 267.724 203.696C267.032 207.152 264.882 209.917 263.193 212.144L251.826 226.736L250.904 227.888C250.521 228.425 250.136 228.886 249.676 229.424C249.829 230.576 249.906 231.728 249.983 232.88L251.135 252.848C251.365 256.918 251.365 261.526 248.37 264.368C245.989 266.672 242.533 267.056 239.154 267.056ZM251.212 179.734C249.906 179.734 248.6 179.888 247.372 180.118C243.224 180.963 239.615 183.574 237.464 187.184C235.237 191.024 234.623 195.939 234.008 200.24L231.551 219.747C231.551 219.901 231.397 220.131 231.244 220.208C225.868 222.973 221.106 228.733 219.57 234.262C217.804 240.79 218.648 248.47 221.874 255.843C223.871 260.374 226.328 263.293 229.324 264.675C231.935 265.904 235.084 265.981 237.848 266.057C241.458 266.134 245.144 265.981 247.525 263.753C250.136 261.219 250.136 256.918 249.906 253.078L248.754 233.11C248.677 231.881 248.6 230.653 248.447 229.501C248.447 229.347 248.447 229.193 248.601 229.04C249.061 228.502 249.522 227.888 249.983 227.35L250.904 226.198L262.271 211.606C263.96 209.456 266.034 206.768 266.572 203.619C267.186 200.24 266.265 196.63 263.577 192.253C262.732 190.793 262.04 189.334 261.426 187.798C260.428 185.571 259.429 183.19 258.354 182.038C256.972 180.272 254.053 179.657 251.212 179.734Z" fill="#111111"/>
<path d="M235.392 218.672C234.47 218.442 233.472 218.519 232.627 218.979C231.705 219.594 231.475 220.823 231.321 221.975C231.168 223.28 231.014 224.739 231.936 225.661C232.55 226.122 233.241 226.429 233.932 226.583L249.446 230.73C250.982 231.114 252.902 231.498 253.977 230.346C254.745 229.501 255.667 226.275 255.206 225.123C254.515 223.357 251.366 222.896 249.753 222.359C245.068 220.669 240.23 219.44 235.392 218.672Z" fill="#111111"/>
<path d="M212.889 224.97C212.351 227.658 212.659 230.576 214.348 232.727C216.729 235.722 221.183 236.336 224.947 235.645C228.71 234.954 232.396 233.495 236.236 233.188C241.919 232.804 247.449 235.184 251.059 239.562C252.211 240.868 252.979 242.404 253.286 244.093C253.593 245.783 252.979 247.549 251.673 248.701C250.444 249.7 248.678 249.853 247.065 249.853C237.926 250.16 228.71 249.162 219.801 246.935C215.27 245.783 210.508 244.17 207.82 240.253C205.516 236.874 205.363 232.343 206.438 228.349C207.513 224.356 209.817 220.823 211.967 217.367C212.582 216.368 213.427 215.293 214.579 215.216C217.958 215.216 213.196 223.588 212.889 224.97Z" fill="white"/>
<path d="M243.993 250.544C235.776 250.544 227.635 249.546 219.724 247.549C215.193 246.397 210.201 244.707 207.436 240.637C205.209 237.411 204.748 232.88 205.977 228.272C207.129 224.202 209.356 220.592 211.584 217.136C212.352 215.907 213.273 214.755 214.656 214.679C215.193 214.602 215.731 214.832 216.115 215.293C217.036 216.599 215.808 219.594 214.348 223.05C214.041 223.664 213.811 224.355 213.58 224.97C213.043 227.811 213.504 230.423 214.963 232.266C216.883 234.723 220.646 235.722 225.024 235.031C226.636 234.723 228.172 234.416 229.708 233.955C231.859 233.264 234.086 232.803 236.313 232.573C242.15 232.189 247.91 234.647 251.596 239.101C252.825 240.483 253.593 242.096 253.9 243.939C254.208 245.859 253.516 247.779 252.057 249.085C250.675 250.16 248.832 250.314 247.065 250.391C246.067 250.544 244.992 250.544 243.993 250.544ZM214.809 215.984C213.888 216.061 213.196 216.906 212.582 217.904C210.432 221.283 208.204 224.816 207.129 228.733C205.9 233.034 206.361 237.181 208.358 240.099C210.892 243.863 215.654 245.475 219.955 246.551C228.787 248.778 237.926 249.699 247.065 249.469C248.601 249.392 250.214 249.315 251.366 248.394C252.518 247.395 253.056 245.859 252.748 244.323C252.441 242.711 251.75 241.251 250.675 240.099C247.142 235.875 241.843 233.571 236.39 233.955C234.24 234.186 232.089 234.647 230.016 235.261C228.403 235.722 226.79 236.106 225.177 236.413C220.416 237.181 216.192 236.029 214.041 233.264C212.428 231.191 211.814 228.195 212.505 225.047C212.736 224.279 213.043 223.587 213.35 222.896C214.195 221.053 215.884 217.136 215.27 216.291C215.116 216.061 215.04 215.907 214.809 215.984Z" fill="#111111"/>
<path d="M228.053 203.767L227.154 203.4C222.976 209.098 219.541 215.323 217.147 222.003C213.88 221.905 210.684 221.42 207.555 220.433C211.902 209.226 218.029 198.767 225.716 189.422C228.626 185.9 231.803 182.504 235.714 180.247C236.79 179.654 239.545 178.483 242.278 177.87C243.647 177.563 244.975 177.405 246.068 177.512C247.167 177.619 247.931 177.981 248.331 178.618C248.394 178.719 248.452 178.937 248.436 179.331C248.421 179.71 248.341 180.185 248.204 180.738C247.932 181.842 247.452 183.184 246.907 184.562C246.43 185.767 245.909 186.983 245.442 188.073C245.377 188.225 245.312 188.376 245.249 188.523C244.744 189.704 244.313 190.727 244.129 191.337C242.667 195.955 241.359 200.65 240.205 205.343L240.205 205.343C238.206 213.494 236.59 221.801 235.512 230.187C235.447 230.503 235.323 230.803 235.152 231.034C234.552 231.743 233.49 231.848 232.793 231.267L232.79 231.265C229.345 228.432 226.242 225.223 225.359 221.102L225.358 221.097C224.731 218.296 225.168 215.491 225.892 212.602C226.113 211.722 226.362 210.829 226.614 209.927C227.179 207.904 227.757 205.834 228.053 203.767Z" fill="#32A8C4" stroke="#111111"/>
<path d="M251.519 240.944H251.366C245.375 238.64 238.77 238.179 232.473 239.639C232.473 239.792 232.319 239.946 232.089 239.946H231.167C231.014 239.946 230.86 239.792 230.783 239.639C230.783 239.485 230.86 239.255 231.09 239.255C237.849 237.335 245.068 237.642 251.673 240.176C251.903 240.176 252.057 240.407 251.98 240.637C251.903 240.867 251.75 240.944 251.519 240.944Z" fill="#111111"/>
<path d="M179.711 228.042C185.702 246.167 195.993 264.061 212.812 273.123C219.033 276.503 225.868 278.499 232.626 280.419C234.47 280.957 236.466 281.495 238.386 280.957C240.69 280.266 242.15 278.039 243.455 275.965L254.207 258.838C239.462 253.846 227.865 241.789 220.722 227.965C213.58 214.141 210.508 198.627 208.665 183.114C208.358 180.195 207.974 177.2 206.13 174.896C204.057 172.362 200.678 171.44 197.529 170.595C193.458 169.52 189.311 168.522 185.164 168.982C177.177 169.827 173.951 174.819 173.414 182.038C172.799 192.022 173.414 202.007 175.41 211.76C176.562 217.367 177.945 222.743 179.711 228.042Z" fill="white"/>
<path d="M236.697 281.802C235.238 281.725 233.855 281.495 232.473 281.034C225.791 279.114 218.803 277.04 212.505 273.661C193.919 263.677 184.089 243.402 179.097 228.196C177.331 222.896 175.948 217.444 174.796 211.991C172.799 202.16 172.185 192.1 172.799 182.116C173.337 173.898 177.484 169.29 185.011 168.522C189.311 168.061 193.689 169.213 197.606 170.212C200.447 170.903 204.287 171.901 206.515 174.743C208.435 177.124 208.819 180.349 209.203 183.191C210.739 196.093 213.503 212.836 221.183 227.812C228.863 242.788 240.921 253.847 254.284 258.378C254.438 258.455 254.591 258.532 254.668 258.762C254.745 258.916 254.668 259.146 254.591 259.223L243.839 276.349C242.38 278.653 240.844 280.804 238.463 281.572C237.926 281.725 237.311 281.802 236.697 281.802ZM180.249 227.812C185.164 242.788 194.918 262.756 213.119 272.586C219.34 275.888 226.175 277.962 232.857 279.882C234.47 280.343 236.467 280.957 238.233 280.42C240.307 279.805 241.689 277.808 242.995 275.735L253.363 259.223C239.999 254.461 227.942 243.248 220.262 228.349C212.428 213.22 209.663 196.324 208.127 183.344C207.82 180.503 207.436 177.584 205.747 175.434C203.903 173.13 200.908 172.208 197.452 171.364C193.535 170.365 189.388 169.29 185.318 169.751C178.329 170.442 174.643 174.589 174.105 182.269C173.491 192.176 174.105 202.16 176.102 211.837C177.1 217.213 178.483 222.589 180.249 227.812Z" fill="#111111"/>
<path d="M177.101 238.103C175.335 240.407 173.568 242.941 173.338 245.86C173.107 248.778 174.49 251.389 175.795 253.847C178.33 258.608 180.787 263.293 183.399 268.055C184.397 270.052 185.626 271.972 187.162 273.661C188.698 275.351 190.925 276.272 193.229 276.196C195.917 275.965 198.067 274.045 199.911 272.048C203.904 267.748 207.283 262.832 209.895 257.533C212.199 252.848 213.888 247.549 212.967 242.404C212.122 238.026 209.434 234.416 206.285 231.421C203.443 228.733 200.218 225.124 196.915 223.127C188.467 218.135 180.941 232.88 177.101 238.103Z" fill="#111111"/>
<path d="M252.672 233.264C269.798 230.576 285.926 223.127 300.057 213.219C301.286 212.375 302.976 212.605 303.821 213.834C304.589 214.909 305.28 216.061 305.741 217.29C306.509 219.363 306.585 221.821 305.357 223.664C304.665 224.586 303.744 225.431 302.745 226.045C280.397 241.866 252.902 248.701 225.715 245.168C216.038 243.863 206.054 240.944 199.449 233.648C197.99 232.035 197.069 230.039 196.838 227.888C196.377 221.667 202.752 225.968 205.747 227.427C210.585 229.655 215.731 231.344 220.953 232.496C231.475 234.647 242.15 234.954 252.672 233.264Z" fill="#111111"/>
<path d="M306.278 199.242C307.661 196.477 310.195 193.559 313.19 194.173C315.11 194.557 316.57 196.323 317.03 198.243C317.414 200.163 317.338 202.16 316.954 204.08C320.486 203.543 324.173 203.005 327.552 204.157C330.931 205.309 333.696 208.919 332.774 212.375C332.16 214.218 330.854 215.754 329.088 216.752C325.632 218.826 321.485 219.44 317.568 218.288C317.952 218.365 314.65 221.821 314.266 222.051C312.653 223.05 310.81 223.511 308.966 223.434C306.202 223.203 303.053 221.744 301.901 219.056C299.597 213.68 303.821 203.927 306.278 199.242Z" fill="white"/>
<path d="M309.503 224.049C309.273 224.049 309.119 224.049 308.889 224.049C306.047 223.818 302.591 222.282 301.363 219.287C298.828 213.143 304.051 202.161 305.74 198.935C307.737 195.018 310.579 193.021 313.267 193.559C315.417 194.097 317.107 195.863 317.567 198.09C317.951 199.857 317.951 201.623 317.567 203.389C320.793 202.929 324.326 202.468 327.628 203.62C331.161 204.849 334.31 208.612 333.235 212.529C332.543 214.525 331.161 216.215 329.318 217.213C325.862 219.364 321.715 219.978 317.798 218.98C316.799 220.285 315.724 221.437 314.495 222.513C313.036 223.511 311.27 224.049 309.503 224.049ZM306.739 199.473C305.126 202.621 300.057 213.22 302.438 218.826C303.513 221.361 306.585 222.666 308.966 222.82C310.732 222.897 312.422 222.436 313.958 221.514C315.033 220.516 316.108 219.441 317.03 218.212C317.03 218.135 317.03 218.135 317.03 218.058C317.107 217.751 317.414 217.597 317.721 217.674C321.484 218.749 325.478 218.135 328.78 216.138C330.009 215.37 331.699 213.988 332.159 212.145C333.004 208.996 330.316 205.693 327.321 204.618C324.019 203.466 320.255 204.004 317.03 204.541C316.723 204.618 316.415 204.388 316.339 204.081C316.339 204.004 316.339 203.927 316.339 203.927C316.799 202.084 316.799 200.164 316.415 198.321C316.031 196.785 314.803 195.018 313.036 194.634C309.811 194.097 307.43 198.167 306.739 199.473Z" fill="#111111"/>
<path d="M308.505 221.59C308.428 221.59 308.428 221.59 308.352 221.59C308.121 221.514 308.044 221.283 308.121 221.13C309.043 218.826 310.809 217.059 313.113 216.214L312.115 215.907C311.347 215.677 310.579 215.446 309.811 215.139C307.968 214.371 306.816 213.066 306.508 211.606C306.124 209.456 307.737 207.613 308.428 206.998C310.502 205.078 313.267 204.157 316.108 204.31C316.339 204.31 316.492 204.541 316.492 204.694C316.492 204.925 316.262 205.078 316.108 205.078C313.497 204.848 310.963 205.77 309.043 207.536C307.737 208.765 307.123 210.224 307.353 211.453C307.66 213.142 309.427 214.064 310.195 214.448C310.886 214.755 311.654 214.986 312.422 215.216C313.19 215.446 313.881 215.677 314.572 215.907C314.803 215.907 314.956 216.138 314.956 216.291C314.956 216.522 314.726 216.675 314.572 216.675C312.038 217.213 309.888 219.056 308.966 221.437C308.812 221.59 308.659 221.59 308.505 221.59Z" fill="#111111"/>
<path d="M308.121 207.383C308.044 207.383 307.967 207.383 307.89 207.306C306.508 206.461 305.663 204.849 305.817 203.159C305.817 202.929 306.047 202.775 306.278 202.775C306.508 202.775 306.662 203.005 306.585 203.236C306.508 204.618 307.122 205.924 308.274 206.615C308.428 206.692 308.505 206.922 308.428 207.153C308.351 207.306 308.274 207.383 308.121 207.383Z" fill="#111111"/>
<path d="M133.324 233.264C116.198 230.576 100.07 223.127 85.9388 213.219C84.71 212.375 83.0204 212.605 82.1756 213.834C81.4076 214.909 80.7164 216.061 80.2556 217.29C79.4876 219.363 79.4108 221.821 80.6396 223.664C81.3308 224.586 82.2524 225.431 83.2508 226.045C105.6 241.866 133.017 248.701 160.204 245.168C169.881 243.863 179.865 240.944 186.47 233.648C187.929 232.035 188.851 230.039 189.081 227.888C189.542 221.667 183.168 225.968 180.172 227.427C175.334 229.655 170.188 231.344 164.966 232.496C154.521 234.647 143.846 234.954 133.324 233.264Z" fill="#111111"/>
<path d="M79.7186 199.242C78.3362 196.477 75.8018 193.559 72.8066 194.173C70.8866 194.557 69.4274 196.323 68.9666 198.243C68.5826 200.163 68.6594 202.16 69.1202 204.08C65.5874 203.543 61.901 203.005 58.5218 204.157C55.1426 205.309 52.3778 208.919 53.2994 212.375C53.9138 214.218 55.2194 215.754 56.9858 216.752C60.4418 218.826 64.589 219.44 68.5058 218.288C68.1986 218.365 71.4242 221.821 71.8082 222.051C73.421 223.05 75.2642 223.511 77.1074 223.434C79.8722 223.203 83.021 221.744 84.173 219.056C86.3234 213.68 82.1762 203.927 79.7186 199.242Z" fill="white"/>
<path d="M76.4927 224.048C74.7263 224.048 72.9599 223.51 71.4239 222.589C70.1951 221.514 69.1199 220.285 68.1215 219.056C64.2047 220.054 60.0575 219.363 56.6015 217.29C55.1423 216.368 53.2991 214.832 52.6847 212.605C51.6095 208.688 54.7583 204.925 58.2911 203.696C61.5935 202.544 65.2031 202.928 68.4287 203.466C68.0447 201.699 68.0447 199.933 68.4287 198.166C68.8895 195.939 70.5791 194.25 72.7295 193.635C75.4175 193.098 78.2591 195.171 80.2559 199.011C81.9455 202.237 87.1679 213.219 84.6335 219.363C83.4047 222.358 79.9487 223.894 77.1071 224.125C76.8767 224.048 76.7231 224.048 76.4927 224.048ZM69.0431 218.288C69.9647 219.44 71.0399 220.592 72.1151 221.59C73.5743 222.512 75.3407 222.973 77.0303 222.896C79.4879 222.742 82.5599 221.36 83.5583 218.902C85.8623 213.219 80.7935 202.621 79.2575 199.549C78.5663 198.243 76.1855 194.173 72.9599 194.787C71.1935 195.094 69.9647 196.861 69.5807 198.474C69.1967 200.317 69.2735 202.237 69.7343 204.08C69.7343 204.234 69.7343 204.464 69.5807 204.541C69.4271 204.694 69.2735 204.694 69.0431 204.694C65.7407 204.157 62.0543 203.619 58.7519 204.771C55.6799 205.846 52.9919 209.149 53.9135 212.298C54.4511 214.218 56.0639 215.523 57.2927 216.291C60.5951 218.288 64.5887 218.902 68.3519 217.827C68.6591 217.75 68.9663 217.904 69.0431 218.211V218.288Z" fill="#111111"/>
<path d="M77.4915 221.59C77.3379 221.59 77.1843 221.514 77.1075 221.36C76.1859 218.902 74.0355 217.136 71.5011 216.598C71.2707 216.598 71.1171 216.445 71.1171 216.214C71.1171 215.984 71.2707 215.83 71.5011 215.83C72.1923 215.523 72.9603 215.293 73.6515 215.139C74.4195 214.909 75.1107 214.678 75.8787 214.371C76.6467 214.064 78.4131 213.142 78.7203 211.376C78.9507 210.147 78.3363 208.688 77.0307 207.459C75.1107 205.693 72.5763 204.848 69.9651 205.078C69.7347 205.078 69.5811 204.925 69.5811 204.694C69.5811 204.464 69.7347 204.31 69.9651 204.31C72.8067 204.08 75.5715 205.078 77.6451 206.998C78.3363 207.69 80.0259 209.456 79.5651 211.606C79.2579 213.066 78.1059 214.371 76.2627 215.139C75.4947 215.446 74.7267 215.677 73.9587 215.907L72.9603 216.214C75.2643 217.059 77.1075 218.903 77.9523 221.13C78.0291 221.36 77.9523 221.514 77.7219 221.59C77.5683 221.514 77.5683 221.59 77.4915 221.59Z" fill="#111111"/>
<path d="M77.8752 207.383C77.6448 207.383 77.4912 207.229 77.4912 206.999C77.4912 206.845 77.568 206.768 77.6448 206.691C78.7968 206 79.488 204.618 79.3344 203.312C79.3344 203.082 79.488 202.928 79.6416 202.928C79.872 202.928 80.0256 203.082 80.1024 203.235C80.256 204.848 79.488 206.461 78.0288 207.383C78.0288 207.383 77.952 207.383 77.8752 207.383Z" fill="#111111"/>
<path d="M185.088 213.987C186.854 216.522 189.389 219.056 192.461 218.595C194.611 218.211 196.224 216.368 197.453 214.602C202.675 206.845 204.749 197.399 205.824 188.183C206.131 185.418 206.285 182.423 204.749 180.119C203.136 177.661 199.987 176.663 197.069 176.202C193.382 175.587 189.619 175.434 185.933 175.741C183.398 175.971 180.787 176.509 178.713 177.968C176.333 179.504 175.257 182.423 176.025 185.187C176.793 188.259 176.717 191.408 177.254 194.557C178.329 201.546 181.017 208.151 185.088 213.987Z" fill="white"/>
<path d="M191.693 219.21C189.312 219.21 186.854 217.52 184.627 214.294C180.557 208.381 177.792 201.622 176.64 194.557C176.409 193.251 176.333 191.946 176.179 190.64C176.102 188.797 175.795 187.03 175.411 185.187C174.566 182.192 175.718 179.043 178.329 177.354C180.633 175.741 183.552 175.28 185.856 175.05C189.619 174.742 193.459 174.819 197.145 175.51C199.68 175.971 203.289 176.893 205.209 179.734C206.822 182.192 206.669 185.418 206.361 188.106C205.056 199.626 202.368 208.074 197.913 214.832C196.838 216.445 195.072 218.672 192.614 219.056C192.23 219.21 192 219.21 191.693 219.21ZM189.849 176.125C188.544 176.125 187.315 176.202 186.009 176.278C183.859 176.432 181.171 176.893 179.097 178.352C176.947 179.811 175.949 182.422 176.64 184.957C177.024 186.8 177.331 188.643 177.408 190.563C177.485 191.792 177.638 193.098 177.869 194.403C179.021 201.315 181.632 207.92 185.625 213.603C187.161 215.83 189.619 218.442 192.384 217.981C194.457 217.674 195.993 215.677 196.992 214.218C201.369 207.69 203.981 199.318 205.286 188.029C205.593 185.494 205.747 182.576 204.365 180.426C203.136 178.506 200.832 177.354 197.069 176.739C194.611 176.355 192.23 176.125 189.849 176.125Z" fill="#111111"/>
<path d="M183.092 187.645C183.092 187.338 183.092 187.03 183.245 186.723C183.322 186.416 183.629 186.186 183.86 186.109C184.167 186.032 184.551 186.109 184.781 186.339C185.549 187.107 186.01 188.106 185.933 189.181C185.933 189.565 185.933 189.949 185.78 190.333C185.626 190.717 185.319 191.024 184.935 191.101C183.783 191.408 183.169 188.413 183.092 187.645Z" fill="#111111"/>
<path d="M195.61 188.182C195.456 188.566 195.379 189.027 195.456 189.411C195.456 189.872 195.763 190.179 196.147 190.333C196.454 190.41 196.838 190.333 197.069 190.102C197.299 189.872 197.53 189.565 197.606 189.258C197.99 188.49 198.682 186.646 197.53 186.262C196.378 185.878 195.84 187.338 195.61 188.182Z" fill="#111111"/>
<path d="M188.083 208.995C188.621 209.84 189.466 210.378 190.387 210.531C191.463 210.531 192.461 210.07 193.075 209.226C193.69 208.381 194.074 207.382 194.304 206.384C194.381 206.077 194.458 205.693 194.381 205.309C194.304 204.925 194.151 204.618 193.767 204.464C193.536 204.387 193.229 204.387 192.999 204.387L188.467 204.771C185.933 205.078 187.085 207.536 188.083 208.995Z" fill="#111111"/>
<path d="M190.334 183.306L190.322 183.305H190.31C187.031 183.305 183.755 183.076 180.483 182.544L180.483 182.543L180.472 182.542C178.282 182.234 175.169 181.629 173.144 180.41C172.136 179.804 171.474 179.091 171.265 178.26C171.059 177.443 171.256 176.372 172.28 174.962C175.602 170.509 180.132 167.112 185.266 165.149L185.266 165.149L185.276 165.145C190.073 163.196 195.399 163.119 200.281 164.769C205.127 166.561 208.924 170.436 210.49 175.347C211.015 177.228 211.114 179.255 210.101 180.673L210.1 180.674C208.938 182.316 206.702 182.846 204.472 183.077C199.811 183.459 195.073 183.535 190.334 183.306Z" fill="#32A8C4" stroke="#111111"/>
<path d="M180.941 195.709C180.941 195.632 180.941 195.479 181.018 195.402C181.095 195.325 181.249 195.325 181.325 195.402C181.786 195.555 182.093 195.863 182.324 196.323C182.324 195.863 182.477 195.479 182.785 195.171C182.938 194.941 183.245 194.864 183.476 194.941C183.86 195.095 183.86 195.555 183.783 195.939C183.629 196.707 183.169 198.243 182.324 197.936C181.556 197.552 180.941 196.631 180.941 195.709Z" fill="#128FFF"/>
<path d="M204.748 177.2C195.148 177.2 185.548 176.663 175.948 175.664C175.718 175.664 175.564 175.434 175.641 175.204C175.641 174.973 175.871 174.82 176.102 174.896C186.316 175.972 196.531 176.509 206.822 176.432C207.052 176.432 207.206 176.586 207.206 176.816C207.206 177.047 207.052 177.2 206.822 177.2H204.748Z" fill="white"/>
<path d="M181.479 230.807C181.018 231.728 180.634 232.804 181.248 233.648C181.94 234.647 183.552 234.724 184.858 234.647C186.164 234.57 187.776 234.493 188.698 235.261C189.159 235.799 189.466 236.336 189.773 236.951C190.08 237.565 190.772 238.026 191.463 238.026C192.154 237.872 192.768 237.488 193.229 236.874C193.844 236.183 194.535 235.492 195.303 235.031C196.148 234.493 197.146 234.263 198.144 234.34C199.22 234.416 200.295 235.031 201.37 234.724C202.061 234.57 202.599 234.032 202.906 233.341C203.136 232.727 203.213 232.112 203.136 231.421C203.06 229.348 202.522 227.351 201.524 225.584C200.372 223.741 198.605 222.282 196.608 221.514C191.079 219.594 186.855 223.28 184.013 226.967C182.938 228.272 182.093 229.501 181.479 230.807Z" fill="white"/>
<path d="M191.386 238.64C190.464 238.564 189.696 238.026 189.235 237.258C189.159 237.104 189.005 236.874 188.928 236.72C188.775 236.336 188.544 236.029 188.237 235.722C187.469 235.031 186.087 235.184 184.858 235.261C182.707 235.415 181.402 235.031 180.711 234.032C179.943 232.88 180.48 231.575 180.941 230.576C181.632 229.194 182.4 227.965 183.322 226.736C187.546 221.36 192 219.44 196.608 221.053C198.835 221.821 200.679 223.357 201.907 225.354C202.983 227.197 203.597 229.348 203.597 231.498C203.674 232.266 203.52 232.957 203.29 233.648C202.983 234.493 202.215 235.108 201.37 235.338C200.602 235.492 199.834 235.415 199.066 235.184C198.682 235.108 198.375 235.031 197.991 234.954C197.146 234.877 196.224 235.108 195.533 235.568C194.765 236.029 194.151 236.644 193.536 237.335C192.999 238.026 192.231 238.487 191.386 238.64ZM186.163 234.032C187.162 233.956 188.237 234.263 189.082 234.877C189.466 235.261 189.773 235.722 190.003 236.26C190.08 236.413 190.157 236.567 190.234 236.72C190.311 236.951 190.771 237.565 191.386 237.565C191.847 237.565 192.307 237.104 192.691 236.644C193.306 235.876 194.074 235.184 194.919 234.647C195.84 234.032 196.992 233.802 198.067 233.879C198.528 233.956 198.912 234.032 199.296 234.109C199.834 234.34 200.448 234.34 201.063 234.263C201.6 234.109 201.984 233.725 202.215 233.264C202.368 232.727 202.445 232.189 202.445 231.575C202.445 229.578 201.907 227.735 200.909 225.968C199.834 224.202 198.221 222.82 196.224 222.128C192.077 220.669 188.16 222.359 184.243 227.428C183.322 228.58 182.554 229.808 181.939 231.037C181.402 232.112 181.325 232.804 181.632 233.341C182.016 233.956 183.091 234.186 184.781 234.109C185.242 234.032 185.703 234.032 186.163 234.032Z" fill="#111111"/>
<path d="M191.155 236.183C191.002 236.183 190.848 236.106 190.771 235.952C189.696 233.034 188.621 229.194 189.543 225.354C189.696 224.663 190.003 223.971 190.464 223.357C191.002 222.666 191.847 222.282 192.691 222.282C193.613 222.359 194.458 222.896 194.919 223.741C195.226 224.432 195.379 225.277 195.303 226.045C195.149 229.04 194.151 231.882 192.307 234.186C192.154 234.339 191.923 234.416 191.77 234.263C191.616 234.109 191.539 233.879 191.693 233.725C193.383 231.498 194.381 228.81 194.535 225.968C194.611 225.277 194.535 224.663 194.227 224.048C193.92 223.434 193.383 223.05 192.691 223.05C192.077 223.05 191.463 223.357 191.079 223.818C190.695 224.279 190.464 224.893 190.311 225.507C189.466 229.117 190.464 232.88 191.463 235.645C191.539 235.875 191.463 236.029 191.232 236.106C191.232 236.183 191.232 236.183 191.155 236.183Z" fill="#111111"/>
<path d="M98.3036 278.73C97.766 278.73 97.2284 278.653 96.6908 278.422C94.4636 277.501 93.3116 274.89 94.2332 272.662C95.1548 270.435 97.766 269.283 99.9932 270.205L100.147 270.282L100.224 270.358C102.451 271.357 103.449 273.891 102.528 276.195C101.836 277.731 100.147 278.806 98.3036 278.73ZM98.4572 272.202C97.3052 272.125 96.3068 273.046 96.3068 274.198C96.23 275.35 97.1516 276.349 98.3036 276.349C99.4556 276.349 100.454 275.504 100.454 274.352C100.454 273.507 99.9932 272.739 99.2252 272.355H99.1484H99.0716C98.918 272.278 98.6876 272.202 98.4572 272.202Z" fill="#111111"/>
<path d="M22.9629 221.053C23.8077 220.285 25.1133 220.208 26.0349 220.9C26.9565 221.591 27.6477 222.512 28.1085 223.511C28.5693 224.509 29.2605 225.431 30.1821 226.122C31.1805 226.66 32.2557 226.967 33.3309 227.197C34.4061 227.504 35.5581 228.119 35.8653 229.194C36.4797 227.812 37.0941 226.352 37.7853 224.97C37.4013 224.202 36.6333 223.664 35.7885 223.588C34.9437 223.511 34.0989 223.28 33.3309 223.05C32.1021 222.512 31.1805 221.591 30.4893 220.439C29.4141 218.749 28.0317 215.831 25.5741 215.984C22.6557 216.215 24.1917 219.671 22.9629 221.053Z" fill="#111111"/>
<path d="M296.448 40.266C295.757 41.4948 294.912 42.57 294.298 43.8756C293.607 45.1044 293.453 46.5636 293.914 47.946L297.754 49.3284C297.293 47.946 297.447 46.4868 298.215 45.258C298.906 44.0292 299.827 42.954 300.519 41.7252C301.287 40.4964 301.517 39.0372 301.056 37.6548C301.133 37.8084 297.754 37.1172 297.754 37.1172C297.063 37.4244 296.909 39.498 296.448 40.266Z" fill="#111111"/>
<path d="M231.091 40.0355C230.553 40.9571 230.323 42.0322 229.785 42.9538C229.325 43.9522 228.326 44.6435 227.251 44.7203L228.787 48.253C229.785 48.1762 230.707 47.9459 231.629 47.6387C232.55 47.3315 233.318 46.6403 233.702 45.7187C234.163 44.6435 233.856 43.4147 234.24 42.3395C234.624 41.1107 235.622 40.2659 236.928 40.0355C236.467 40.1123 235.699 37.2706 234.547 37.1938C233.165 37.1938 231.629 39.0371 231.091 40.0355Z" fill="#111111"/>
<path d="M130.065 35.4938C130.346 36.2022 130.897 36.8071 131.585 37.113L131.614 37.1258L131.644 37.135C132.365 37.3511 133.091 37.6393 133.756 37.933C134.631 38.6249 135.229 39.643 135.362 40.7117C135.5 41.81 135.757 42.9179 136.19 43.9802L134.275 44.7165C134.015 43.4302 133.22 42.2661 132.039 41.5997C131.631 41.3555 131.188 41.1913 130.802 41.0477C130.782 41.0404 130.763 41.0331 130.743 41.0258C130.323 40.8694 129.974 40.7339 129.685 40.5408C128.695 39.8808 128.167 38.6933 128.364 37.5086C128.533 36.5584 129.182 35.8048 130.065 35.4938Z" fill="#32A8C4" stroke="#111111"/>
<path d="M48.6903 249.853C47.6151 249.853 46.5399 249.469 45.7719 248.701C44.2359 247.088 44.3127 244.477 46.0023 242.941C47.5383 241.482 49.9959 241.482 51.5319 242.941L51.6087 243.018L51.6855 243.095C53.1447 244.784 53.0679 247.242 51.5319 248.855C50.6871 249.469 49.6887 249.853 48.6903 249.853ZM48.6903 244.093C48.2295 244.093 47.7687 244.247 47.4615 244.554C46.7703 245.245 46.7703 246.397 47.4615 247.088C48.1527 247.779 49.3047 247.779 49.9959 247.088C50.6871 246.397 50.6871 245.322 50.0727 244.631C49.6119 244.247 49.1511 244.093 48.6903 244.093Z" fill="#111111"/>
<path d="M325.632 275.043C325.248 275.043 324.941 274.966 324.634 274.89C322.56 274.429 321.178 272.432 321.639 270.358C322.099 268.285 324.096 266.902 326.17 267.363C326.4 267.363 326.631 267.44 326.784 267.594C327.015 267.594 327.245 267.594 327.399 267.67C329.319 268.592 330.163 270.819 329.242 272.739C328.627 274.275 327.168 275.12 325.632 275.043ZM325.709 269.667C324.864 269.514 324.096 270.128 323.943 270.973C323.789 271.818 324.403 272.586 325.248 272.739C326.093 273.046 327.015 272.662 327.322 271.818C327.629 270.973 327.245 270.051 326.4 269.744C326.323 269.667 326.247 269.667 326.17 269.59C326.093 269.59 326.016 269.59 325.863 269.59L325.709 269.667Z" fill="#111111"/>
<path d="M352.94 212.611L353.322 214.903C353.367 215.301 353.114 215.607 352.834 215.642L352.804 215.646L352.774 215.653C352.63 215.689 352.505 215.655 352.404 215.554L352.371 215.521L352.332 215.494L350.412 214.189L349.656 213.674L349.631 214.589L349.554 217.43L349.554 217.43V217.444C349.554 217.619 349.448 217.839 349.216 217.992C348.945 218.089 348.702 218.051 348.588 217.965L348.567 217.95L348.545 217.937L347.393 217.245L346.512 216.717L346.639 217.736C346.71 218.303 346.712 218.948 346.712 219.559C346.656 219.903 346.343 220.169 345.984 220.169C345.645 220.169 345.332 219.856 345.332 219.517C345.332 218.103 345.175 216.764 344.862 215.427C344.818 215.137 344.915 214.868 345.144 214.685C345.345 214.524 345.623 214.524 345.825 214.685L345.848 214.704L345.874 214.72L347.487 215.718L348.227 216.177L348.25 215.306L348.327 212.388L348.327 212.388V212.375C348.327 212.049 348.615 211.754 349 211.797L349.028 211.8H349.056C349.187 211.8 349.278 211.845 349.316 211.884L349.351 211.919L349.393 211.946L350.775 212.868L351.779 213.537L351.543 212.354L351.235 210.818L350.745 210.916L351.235 210.818C351.192 210.6 351.293 210.342 351.429 210.24C351.603 210.11 351.881 210.065 352.095 210.151L352.095 210.151L352.107 210.155L356.022 211.614C356.022 211.614 356.023 211.614 356.023 211.614C356.398 211.755 356.536 212.16 356.43 212.408L356.425 212.419L356.421 212.43C356.28 212.805 355.943 212.954 355.607 212.829L353.613 212.062L352.796 211.748L352.94 212.611Z" fill="#32A8C4" stroke="#111111"/>
<path d="M88.7499 47.0547L88.7317 47.0364L88.7117 47.0202L87.4829 46.0218L87.4753 46.0156L87.4676 46.0098C87.3121 45.8932 87.2068 45.6734 87.2068 45.4114C87.2068 45.2538 87.2954 45.0831 87.5223 44.9066L88.9541 44.0777L89.7571 43.6128L88.9272 43.1978C88.315 42.8918 87.7261 42.5969 87.1397 42.2316C86.823 41.9981 86.7604 41.6359 86.9398 41.3544C87.0893 41.2059 87.1733 41.1305 87.2339 41.0989L89.9923 39.7964L91.3599 39.1505L89.8768 38.8539L88.3541 38.5494C88.0177 38.4598 87.7822 38.1142 87.8142 37.7458C87.8665 37.5593 87.9529 37.4504 88.0593 37.3795L88.07 37.3723L88.0803 37.3647L91.0472 35.1585C91.313 35.0235 91.6878 35.1246 91.8721 35.4332C91.9954 35.6912 91.9588 35.9793 91.751 36.2032L90.8612 36.8706L89.9665 37.5416L91.0631 37.7609L93.3539 38.2191C93.7046 38.3123 93.9082 38.6594 93.8249 38.9926C93.7821 39.1639 93.6446 39.3462 93.4766 39.4323L89.7199 41.1956L88.7114 41.669L89.7354 42.1078C90.3022 42.3507 90.8654 42.5116 91.3953 42.663L91.4078 42.6666L91.4158 42.6689L91.4239 42.6709C91.7807 42.7601 91.989 43.1107 91.9049 43.447C91.87 43.5866 91.7656 43.7132 91.5456 43.9356L89.4539 45.1309L88.8855 45.4557L89.3484 45.9186C89.6139 46.1841 89.6139 46.5587 89.3484 46.8243L89.2505 46.9222L89.2169 47.0566C89.2096 47.0856 89.2013 47.1011 89.1967 47.1082C89.1925 47.1147 89.1894 47.1174 89.1871 47.1191C89.1838 47.1214 89.1585 47.1386 89.0876 47.1386C89.0226 47.1386 88.9377 47.127 88.8602 47.1031C88.7888 47.0812 88.7569 47.0593 88.7508 47.0551C88.7496 47.0543 88.7494 47.0541 88.7499 47.0547Z" fill="#32A8C4" stroke="#111111"/>
<path d="M36.9914 266.95L35.0767 265.648C34.7424 265.406 34.6847 265.023 34.8899 264.735L34.9127 264.703L34.9255 264.678C34.9278 264.676 34.9315 264.673 34.9369 264.669C34.9491 264.661 34.9668 264.649 34.9935 264.635C35.0209 264.62 35.0508 264.605 35.0907 264.585L35.1031 264.579L35.1151 264.572L36.7279 263.65L37.4109 263.26L36.7676 262.807L34.694 261.348L34.6748 261.334L34.6543 261.323C34.3947 261.174 34.2797 260.751 34.5059 260.435L34.5287 260.403L34.5438 260.373C34.5466 260.369 34.5548 260.361 34.5727 260.346C34.5872 260.334 34.6 260.324 34.6194 260.309C34.6261 260.304 34.6337 260.298 34.6424 260.291C34.6583 260.279 34.6821 260.26 34.7084 260.238L37.2802 258.649L37.2944 258.641L37.3081 258.631C37.6007 258.422 37.994 258.486 38.2339 258.76C38.4183 259.034 38.3707 259.389 38.1404 259.627C38.1292 259.632 38.1184 259.638 38.108 259.644H38.0994L37.9759 259.723L36.9007 260.415L36.2583 260.828L36.8937 261.251L38.9599 262.629C39.2927 262.87 39.3499 263.253 39.145 263.54L39.1222 263.572L39.1073 263.601C39.1033 263.606 39.0914 263.619 39.0633 263.643C39.0448 263.659 39.032 263.669 39.016 263.682C39.0019 263.694 38.9854 263.707 38.9605 263.728C38.9302 263.754 38.8957 263.783 38.8592 263.817L37.2919 264.788L36.6591 265.179L37.261 265.617L38.9473 266.844C39.1267 266.979 39.2055 267.138 39.2055 267.363C39.2055 267.591 39.1222 267.769 38.9859 267.913L36.891 269.574C36.8764 269.577 36.8614 269.579 36.8468 269.582L36.8409 269.583C36.8151 269.587 36.7892 269.592 36.7624 269.596C36.6489 269.615 36.5501 269.628 36.4799 269.628C36.2517 269.628 36.0732 269.544 35.9293 269.407C35.7421 269.162 35.7839 268.729 36.0258 268.521L37.0151 267.759L37.5628 267.338L36.9914 266.95Z" fill="#32A8C4" stroke="#111111"/>
<path d="M74.0352 252.848C73.8048 252.08 74.1888 251.312 74.88 251.005C75.5712 250.698 76.3392 250.544 77.0304 250.544C77.7984 250.544 78.4896 250.391 79.1808 250.084C79.7952 249.623 80.256 249.085 80.7168 248.471C81.1776 247.856 81.8688 247.549 82.6368 247.549C82.0224 246.781 81.3312 245.936 80.7168 245.168C80.1792 245.168 79.6416 245.476 79.2576 245.936C78.9504 246.397 78.5664 246.858 78.2592 247.242C77.568 247.78 76.7232 248.087 75.8784 248.164C74.5728 248.317 72.4224 248.24 71.808 249.776C71.04 251.62 73.5744 251.696 74.0352 252.848Z" fill="#111111"/>
<path d="M201.966 65.2944L201.98 65.2881L201.993 65.281C202.245 65.1433 202.52 64.9365 202.779 64.732C202.876 64.6559 202.97 64.58 203.064 64.5048C203.237 64.3665 203.406 64.2303 203.581 64.0988C203.848 63.8975 204.086 63.7378 204.289 63.6415C204.391 63.5935 204.464 63.5707 204.514 63.5603C204.574 63.6259 204.652 63.7106 204.742 63.8085C204.96 64.0447 205.253 64.3588 205.548 64.6686C205.842 64.977 206.144 65.2866 206.38 65.5113C206.429 65.5581 206.478 65.6032 206.524 65.6451C206.067 66.7209 205.229 67.549 204.106 67.9856L204.09 67.9919L204.075 67.9992C203.451 68.2929 202.805 68.5149 202.129 68.7467L202.117 68.7507C201.456 68.9772 200.766 69.2138 200.092 69.5301C198.957 70.0008 197.979 70.8914 197.409 72.0035L195.697 69.5193C196.078 68.3979 196.93 67.511 198.049 66.984L198.066 66.9763L198.082 66.9674C198.663 66.6402 199.288 66.382 199.948 66.1237C200.058 66.0807 200.169 66.0377 200.281 65.9944C200.833 65.7803 201.407 65.5576 201.966 65.2944ZM206.682 65.2328C206.696 65.2057 206.712 65.1795 206.731 65.1549C206.805 65.225 206.871 65.2858 206.927 65.3345L206.682 65.2328Z" fill="#32A8C4" stroke="#111111"/>
<path d="M337.612 249.161C336.844 248.854 336.076 248.777 335.385 248.47C334.617 248.24 334.079 247.625 333.926 246.857L331.545 248.24C331.699 248.931 331.929 249.545 332.236 250.237C332.543 250.851 333.081 251.312 333.772 251.542C334.54 251.773 335.385 251.465 336.23 251.619C337.151 251.773 337.843 252.464 338.073 253.309C337.996 253.001 339.993 252.157 339.916 251.312C339.839 250.467 338.38 249.469 337.612 249.161Z" fill="#111111"/>
<path d="M297.973 254.446L297.973 254.446L297.97 254.456C297.842 254.839 297.779 255.218 297.723 255.554L297.72 255.569C297.662 255.918 297.61 256.224 297.511 256.525C297.201 257.386 296.396 257.961 295.432 258.031C294.724 258.026 294.097 257.695 293.684 257.163C294.137 256.816 294.486 256.301 294.628 255.734L294.636 255.705L294.639 255.675C294.647 255.614 294.655 255.553 294.662 255.492C294.73 254.94 294.8 254.376 294.922 253.868C295.338 253.062 296.001 252.427 296.825 252.174L296.848 252.167L296.87 252.158C297.671 251.824 298.485 251.428 299.256 250.92C299.544 251.311 299.813 251.708 300.077 252.125C299.072 252.581 298.337 253.427 297.973 254.446Z" fill="#32A8C4" stroke="#111111"/>
<path d="M273.485 67.2995C273.331 67.2995 273.254 67.2227 273.177 67.1459C271.565 64.8419 271.565 61.7699 273.101 59.4659L273.024 59.3123C272.025 57.4691 272.025 55.3187 273.024 53.4755C273.945 51.7859 275.174 50.2499 276.633 48.9443C276.787 48.7907 277.017 48.7907 277.171 48.9443C277.325 49.0979 277.325 49.3283 277.171 49.4819C275.789 50.7107 274.637 52.1699 273.715 53.7827C273.024 55.1651 272.717 57.1619 273.638 58.7747C273.869 58.4675 274.176 58.2371 274.406 58.0067C275.021 57.3923 275.865 57.2387 276.633 57.4691C277.017 57.6227 277.325 58.0067 277.478 58.4675C277.632 58.9283 277.555 59.4659 277.325 59.9267C276.787 60.6947 275.865 61.0019 274.944 60.7715C274.406 60.6179 273.945 60.3875 273.638 60.0035C272.409 62.0771 272.486 64.6115 273.792 66.6083C273.945 66.7619 273.869 66.9923 273.715 67.1459C273.638 67.2995 273.561 67.2995 273.485 67.2995ZM274.099 59.4659C274.406 59.7731 274.79 60.0035 275.174 60.0803C275.712 60.2339 276.326 60.0035 276.71 59.5427C276.864 59.3123 276.864 59.0051 276.787 58.6979C276.71 58.4675 276.557 58.3139 276.326 58.1603C275.789 57.9299 275.097 58.3907 274.867 58.6211C274.637 58.9283 274.329 59.1587 274.099 59.4659Z" fill="white"/>
<path d="M273.485 67.9142C273.178 67.9142 272.87 67.7606 272.717 67.5302C271.027 65.1494 270.95 62.0006 272.41 59.4662C271.411 57.5462 271.488 55.1654 272.486 53.2454C273.485 51.479 274.714 49.943 276.25 48.5606C276.403 48.407 276.634 48.2534 276.941 48.2534C277.171 48.2534 277.402 48.3302 277.632 48.5606C278.016 48.9446 278.016 49.559 277.632 49.943C276.326 51.095 275.174 52.5542 274.253 54.0902C273.638 55.2422 273.485 56.5478 273.792 57.7766L274.022 57.5462C274.79 56.855 275.866 56.6246 276.864 56.9318C277.402 57.1622 277.862 57.6998 278.016 58.2374C278.246 58.9286 278.17 59.6198 277.786 60.2342C277.094 61.2326 275.866 61.6166 274.79 61.3862C274.406 61.3094 274.099 61.1558 273.792 60.9254C273.024 62.6918 273.178 64.6886 274.176 66.3014C274.483 66.6854 274.406 67.2998 273.946 67.607C273.946 67.8374 273.715 67.9142 273.485 67.9142ZM274.944 59.3894C275.021 59.4662 275.174 59.543 275.328 59.543C275.635 59.6198 276.019 59.543 276.25 59.2358C276.326 59.0822 276.326 59.0054 276.25 58.8518C276.25 58.775 276.173 58.6982 276.173 58.6982C276.019 58.6214 275.635 58.775 275.251 59.0822L274.944 59.3894Z" fill="#111111"/>
<path d="M170.803 48.7906C170.419 48.7906 170.112 48.7138 169.804 48.4834C169.113 48.0994 168.729 47.4082 168.652 46.717C168.652 45.8722 169.036 45.0274 169.651 44.4898L169.497 44.413C166.732 43.645 163.737 44.3362 161.664 46.333C161.51 46.4866 161.28 46.4866 161.126 46.333C160.972 46.1794 160.972 45.949 161.126 45.7954C163.43 43.645 166.656 42.8002 169.728 43.7218C169.958 43.7986 170.265 43.8754 170.496 43.9522C170.649 43.8754 170.726 43.8754 170.88 43.7986C172.032 43.4146 173.337 43.4914 174.489 43.8754C177.254 44.6434 179.251 46.1794 180.019 48.253C180.096 48.4834 180.019 48.637 179.788 48.7138C179.558 48.7906 179.404 48.7138 179.328 48.4834C178.406 45.949 175.564 44.8738 174.336 44.5666C173.414 44.2594 172.416 44.1826 171.494 44.413C171.878 44.7202 172.262 45.0274 172.492 45.4882C172.8 46.1026 172.876 46.7938 172.723 47.4082C172.569 47.9458 172.262 48.3298 171.801 48.5602C171.34 48.7906 171.11 48.7906 170.803 48.7906ZM170.496 44.797C169.804 45.181 169.42 45.8722 169.42 46.6402C169.497 47.101 169.728 47.5618 170.188 47.7922C170.496 48.0226 170.88 48.0226 171.264 47.869C171.571 47.7154 171.724 47.485 171.801 47.1778C171.955 46.717 171.878 46.2562 171.648 45.8722C171.34 45.4114 170.956 45.1042 170.496 44.797Z" fill="white"/>
<path d="M170.803 49.4049C170.342 49.4049 169.881 49.2513 169.497 49.0209C168.652 48.5601 168.115 47.7153 168.038 46.7169C168.038 46.0257 168.192 45.3345 168.576 44.7969C166.195 44.3361 163.737 45.1041 161.971 46.7937C161.587 47.1777 160.972 47.1777 160.588 46.7937C160.435 46.6401 160.281 46.3329 160.281 46.1025C160.281 45.8721 160.358 45.6417 160.588 45.4113C163.046 43.1073 166.502 42.2625 169.728 43.1841C169.881 43.2609 170.112 43.3377 170.265 43.3377L170.419 43.2609C171.724 42.8769 173.107 42.8769 174.336 43.3377C177.254 44.1057 179.404 45.8721 180.249 48.0993C180.48 48.5601 180.249 49.1745 179.712 49.3281C179.251 49.5585 178.636 49.3281 178.483 48.7905V48.7137C177.638 46.4097 175.027 45.4881 173.875 45.1809C173.414 45.0273 172.953 44.9505 172.416 44.9505C172.492 45.0273 172.569 45.1041 172.569 45.2577C172.953 45.9489 173.107 46.8705 172.8 47.6385C172.646 48.3297 172.185 48.8673 171.571 49.1745C171.494 49.3281 171.187 49.4049 170.803 49.4049ZM170.496 45.5649C170.188 45.8721 169.958 46.2561 169.958 46.7169C170.035 47.0241 170.188 47.2545 170.419 47.4081C170.572 47.4849 170.726 47.5617 170.956 47.4849C171.11 47.4081 171.187 47.2545 171.264 47.1009C171.34 46.7937 171.34 46.4865 171.187 46.1793C170.956 45.9489 170.803 45.7185 170.496 45.5649Z" fill="#111111"/>
</svg>
